<?xml version="1.0" encoding="utf-8"?>
<svg xmlns="http://www.w3.org/2000/svg" xmlns:xlink="http://www.w3.org/1999/xlink" width="600" height="400" viewBox="0 0 2400 1600">
<defs>
  <clipPath id="clip740">
    <rect x="0" y="0" width="2400" height="1600"/>
  </clipPath>
</defs>
<defs>
  <clipPath id="clip742">
    <rect x="210" y="47" width="2143" height="1377"/>
  </clipPath>
</defs>
<polyline clip-path="url(#clip742)" style="stroke:#000000; stroke-linecap:round; stroke-linejoin:round; stroke-width:2; stroke-opacity:0.1; fill:none" points="334.226,1423.18 334.226,47.2441 "/>
<polyline clip-path="url(#clip742)" style="stroke:#000000; stroke-linecap:round; stroke-linejoin:round; stroke-width:2; stroke-opacity:0.1; fill:none" points="804.935,1423.18 804.935,47.2441 "/>
<polyline clip-path="url(#clip742)" style="stroke:#000000; stroke-linecap:round; stroke-linejoin:round; stroke-width:2; stroke-opacity:0.1; fill:none" points="1275.64,1423.18 1275.64,47.2441 "/>
<polyline clip-path="url(#clip742)" style="stroke:#000000; stroke-linecap:round; stroke-linejoin:round; stroke-width:2; stroke-opacity:0.1; fill:none" points="1746.35,1423.18 1746.35,47.2441 "/>
<polyline clip-path="url(#clip742)" style="stroke:#000000; stroke-linecap:round; stroke-linejoin:round; stroke-width:2; stroke-opacity:0.1; fill:none" points="2217.06,1423.18 2217.06,47.2441 "/>
<polyline clip-path="url(#clip740)" style="stroke:#000000; stroke-linecap:round; stroke-linejoin:round; stroke-width:4; stroke-opacity:1; fill:none" points="210.746,1423.18 2352.76,1423.18 "/>
<polyline clip-path="url(#clip740)" style="stroke:#000000; stroke-linecap:round; stroke-linejoin:round; stroke-width:4; stroke-opacity:1; fill:none" points="334.226,1423.18 334.226,1404.28 "/>
<polyline clip-path="url(#clip740)" style="stroke:#000000; stroke-linecap:round; stroke-linejoin:round; stroke-width:4; stroke-opacity:1; fill:none" points="804.935,1423.18 804.935,1404.28 "/>
<polyline clip-path="url(#clip740)" style="stroke:#000000; stroke-linecap:round; stroke-linejoin:round; stroke-width:4; stroke-opacity:1; fill:none" points="1275.64,1423.18 1275.64,1404.28 "/>
<polyline clip-path="url(#clip740)" style="stroke:#000000; stroke-linecap:round; stroke-linejoin:round; stroke-width:4; stroke-opacity:1; fill:none" points="1746.35,1423.18 1746.35,1404.28 "/>
<polyline clip-path="url(#clip740)" style="stroke:#000000; stroke-linecap:round; stroke-linejoin:round; stroke-width:4; stroke-opacity:1; fill:none" points="2217.06,1423.18 2217.06,1404.28 "/>
<path clip-path="url(#clip740)" d="M304.169 1468.75 L333.844 1468.75 L333.844 1472.69 L304.169 1472.69 L304.169 1468.75 Z" fill="#000000" fill-rule="nonzero" fill-opacity="1" /><path clip-path="url(#clip740)" d="M347.965 1481.64 L364.284 1481.64 L364.284 1485.58 L342.34 1485.58 L342.34 1481.64 Q345.002 1478.89 349.585 1474.26 Q354.192 1469.61 355.372 1468.27 Q357.617 1465.74 358.497 1464.01 Q359.4 1462.25 359.4 1460.56 Q359.4 1457.8 357.455 1456.07 Q355.534 1454.33 352.432 1454.33 Q350.233 1454.33 347.78 1455.09 Q345.349 1455.86 342.571 1457.41 L342.571 1452.69 Q345.395 1451.55 347.849 1450.97 Q350.303 1450.39 352.34 1450.39 Q357.71 1450.39 360.905 1453.08 Q364.099 1455.77 364.099 1460.26 Q364.099 1462.39 363.289 1464.31 Q362.502 1466.2 360.395 1468.8 Q359.817 1469.47 356.715 1472.69 Q353.613 1475.88 347.965 1481.64 Z" fill="#000000" fill-rule="nonzero" fill-opacity="1" /><path clip-path="url(#clip740)" d="M774.693 1468.75 L804.368 1468.75 L804.368 1472.69 L774.693 1472.69 L774.693 1468.75 Z" fill="#000000" fill-rule="nonzero" fill-opacity="1" /><path clip-path="url(#clip740)" d="M815.271 1481.64 L822.91 1481.64 L822.91 1455.28 L814.6 1456.95 L814.6 1452.69 L822.864 1451.02 L827.539 1451.02 L827.539 1481.64 L835.178 1481.64 L835.178 1485.58 L815.271 1485.58 L815.271 1481.64 Z" fill="#000000" fill-rule="nonzero" fill-opacity="1" /><path clip-path="url(#clip740)" d="M1275.64 1454.1 Q1272.03 1454.1 1270.2 1457.66 Q1268.4 1461.2 1268.4 1468.33 Q1268.4 1475.44 1270.2 1479.01 Q1272.03 1482.55 1275.64 1482.55 Q1279.28 1482.55 1281.08 1479.01 Q1282.91 1475.44 1282.91 1468.33 Q1282.91 1461.2 1281.08 1457.66 Q1279.28 1454.1 1275.64 1454.1 M1275.64 1450.39 Q1281.45 1450.39 1284.51 1455 Q1287.59 1459.58 1287.59 1468.33 Q1287.59 1477.06 1284.51 1481.67 Q1281.45 1486.25 1275.64 1486.25 Q1269.83 1486.25 1266.76 1481.67 Q1263.7 1477.06 1263.7 1468.33 Q1263.7 1459.58 1266.76 1455 Q1269.83 1450.39 1275.64 1450.39 Z" fill="#000000" fill-rule="nonzero" fill-opacity="1" /><path clip-path="url(#clip740)" d="M1736.74 1481.64 L1744.37 1481.64 L1744.37 1455.28 L1736.06 1456.95 L1736.06 1452.69 L1744.33 1451.02 L1749 1451.02 L1749 1481.64 L1756.64 1481.64 L1756.64 1485.58 L1736.74 1485.58 L1736.74 1481.64 Z" fill="#000000" fill-rule="nonzero" fill-opacity="1" /><path clip-path="url(#clip740)" d="M2211.72 1481.64 L2228.03 1481.64 L2228.03 1485.58 L2206.09 1485.58 L2206.09 1481.64 Q2208.75 1478.89 2213.34 1474.26 Q2217.94 1469.61 2219.12 1468.27 Q2221.37 1465.74 2222.25 1464.01 Q2223.15 1462.25 2223.15 1460.56 Q2223.15 1457.8 2221.21 1456.07 Q2219.28 1454.33 2216.18 1454.33 Q2213.98 1454.33 2211.53 1455.09 Q2209.1 1455.86 2206.32 1457.41 L2206.32 1452.69 Q2209.15 1451.55 2211.6 1450.97 Q2214.05 1450.39 2216.09 1450.39 Q2221.46 1450.39 2224.65 1453.08 Q2227.85 1455.77 2227.85 1460.26 Q2227.85 1462.39 2227.04 1464.31 Q2226.25 1466.2 2224.15 1468.8 Q2223.57 1469.47 2220.47 1472.69 Q2217.36 1475.88 2211.72 1481.64 Z" fill="#000000" fill-rule="nonzero" fill-opacity="1" /><path clip-path="url(#clip740)" d="M1175.73 1520.52 L1182.19 1520.52 L1182.19 1549.39 Q1182.19 1557.03 1184.96 1560.4 Q1187.73 1563.75 1193.94 1563.75 Q1200.11 1563.75 1202.88 1560.4 Q1205.65 1557.03 1205.65 1549.39 L1205.65 1520.52 L1212.11 1520.52 L1212.11 1550.19 Q1212.11 1559.48 1207.49 1564.22 Q1202.91 1568.97 1193.94 1568.97 Q1184.93 1568.97 1180.31 1564.22 Q1175.73 1559.48 1175.73 1550.19 L1175.73 1520.52 Z" fill="#000000" fill-rule="nonzero" fill-opacity="1" /><path clip-path="url(#clip740)" d="M1223.92 1532.4 L1229.77 1532.4 L1229.77 1568.04 L1223.92 1568.04 L1223.92 1532.4 M1223.92 1518.52 L1229.77 1518.52 L1229.77 1525.93 L1223.92 1525.93 L1223.92 1518.52 Z" fill="#000000" fill-rule="nonzero" fill-opacity="1" /><path clip-path="url(#clip740)" d="M1271.66 1546.53 L1271.66 1568.04 L1265.8 1568.04 L1265.8 1546.72 Q1265.8 1541.66 1263.83 1539.14 Q1261.86 1536.63 1257.91 1536.63 Q1253.17 1536.63 1250.43 1539.65 Q1247.69 1542.68 1247.69 1547.9 L1247.69 1568.04 L1241.81 1568.04 L1241.81 1532.4 L1247.69 1532.4 L1247.69 1537.93 Q1249.8 1534.72 1252.63 1533.13 Q1255.49 1531.54 1259.22 1531.54 Q1265.36 1531.54 1268.51 1535.36 Q1271.66 1539.14 1271.66 1546.53 Z" fill="#000000" fill-rule="nonzero" fill-opacity="1" /><path clip-path="url(#clip740)" d="M1303.52 1518.52 L1317.02 1518.52 L1317.02 1523.07 L1309.38 1523.07 L1309.38 1572.09 L1317.02 1572.09 L1317.02 1576.64 L1303.52 1576.64 L1303.52 1518.52 Z" fill="#000000" fill-rule="nonzero" fill-opacity="1" /><path clip-path="url(#clip740)" d="M1342 1568.04 L1323.86 1520.52 L1330.58 1520.52 L1345.63 1560.53 L1360.72 1520.52 L1367.4 1520.52 L1349.29 1568.04 L1342 1568.04 Z" fill="#000000" fill-rule="nonzero" fill-opacity="1" /><path clip-path="url(#clip740)" d="M1387.77 1518.52 L1387.77 1576.64 L1374.28 1576.64 L1374.28 1572.09 L1381.88 1572.09 L1381.88 1523.07 L1374.28 1523.07 L1374.28 1518.52 L1387.77 1518.52 Z" fill="#000000" fill-rule="nonzero" fill-opacity="1" /><polyline clip-path="url(#clip742)" style="stroke:#000000; stroke-linecap:round; stroke-linejoin:round; stroke-width:2; stroke-opacity:0.1; fill:none" points="210.746,1331.9 2352.76,1331.9 "/>
<polyline clip-path="url(#clip742)" style="stroke:#000000; stroke-linecap:round; stroke-linejoin:round; stroke-width:2; stroke-opacity:0.1; fill:none" points="210.746,1027 2352.76,1027 "/>
<polyline clip-path="url(#clip742)" style="stroke:#000000; stroke-linecap:round; stroke-linejoin:round; stroke-width:2; stroke-opacity:0.1; fill:none" points="210.746,722.089 2352.76,722.089 "/>
<polyline clip-path="url(#clip742)" style="stroke:#000000; stroke-linecap:round; stroke-linejoin:round; stroke-width:2; stroke-opacity:0.1; fill:none" points="210.746,417.181 2352.76,417.181 "/>
<polyline clip-path="url(#clip742)" style="stroke:#000000; stroke-linecap:round; stroke-linejoin:round; stroke-width:2; stroke-opacity:0.1; fill:none" points="210.746,112.274 2352.76,112.274 "/>
<polyline clip-path="url(#clip740)" style="stroke:#000000; stroke-linecap:round; stroke-linejoin:round; stroke-width:4; stroke-opacity:1; fill:none" points="210.746,1423.18 210.746,47.2441 "/>
<polyline clip-path="url(#clip740)" style="stroke:#000000; stroke-linecap:round; stroke-linejoin:round; stroke-width:4; stroke-opacity:1; fill:none" points="210.746,1331.9 229.644,1331.9 "/>
<polyline clip-path="url(#clip740)" style="stroke:#000000; stroke-linecap:round; stroke-linejoin:round; stroke-width:4; stroke-opacity:1; fill:none" points="210.746,1027 229.644,1027 "/>
<polyline clip-path="url(#clip740)" style="stroke:#000000; stroke-linecap:round; stroke-linejoin:round; stroke-width:4; stroke-opacity:1; fill:none" points="210.746,722.089 229.644,722.089 "/>
<polyline clip-path="url(#clip740)" style="stroke:#000000; stroke-linecap:round; stroke-linejoin:round; stroke-width:4; stroke-opacity:1; fill:none" points="210.746,417.181 229.644,417.181 "/>
<polyline clip-path="url(#clip740)" style="stroke:#000000; stroke-linecap:round; stroke-linejoin:round; stroke-width:4; stroke-opacity:1; fill:none" points="210.746,112.274 229.644,112.274 "/>
<path clip-path="url(#clip740)" d="M114.631 1332.35 L144.306 1332.35 L144.306 1336.29 L114.631 1336.29 L114.631 1332.35 Z" fill="#000000" fill-rule="nonzero" fill-opacity="1" /><path clip-path="url(#clip740)" d="M158.427 1345.25 L174.746 1345.25 L174.746 1349.18 L152.802 1349.18 L152.802 1345.25 Q155.464 1342.49 160.047 1337.86 Q164.653 1333.21 165.834 1331.87 Q168.079 1329.35 168.959 1327.61 Q169.862 1325.85 169.862 1324.16 Q169.862 1321.41 167.917 1319.67 Q165.996 1317.93 162.894 1317.93 Q160.695 1317.93 158.241 1318.7 Q155.811 1319.46 153.033 1321.01 L153.033 1316.29 Q155.857 1315.16 158.311 1314.58 Q160.765 1314 162.802 1314 Q168.172 1314 171.366 1316.68 Q174.561 1319.37 174.561 1323.86 Q174.561 1325.99 173.751 1327.91 Q172.964 1329.81 170.857 1332.4 Q170.278 1333.07 167.177 1336.29 Q164.075 1339.48 158.427 1345.25 Z" fill="#000000" fill-rule="nonzero" fill-opacity="1" /><path clip-path="url(#clip740)" d="M114.26 1027.45 L143.936 1027.45 L143.936 1031.38 L114.26 1031.38 L114.26 1027.45 Z" fill="#000000" fill-rule="nonzero" fill-opacity="1" /><path clip-path="url(#clip740)" d="M154.839 1040.34 L162.477 1040.34 L162.477 1013.98 L154.167 1015.64 L154.167 1011.38 L162.431 1009.72 L167.107 1009.72 L167.107 1040.34 L174.746 1040.34 L174.746 1044.28 L154.839 1044.28 L154.839 1040.34 Z" fill="#000000" fill-rule="nonzero" fill-opacity="1" /><path clip-path="url(#clip740)" d="M162.802 707.887 Q159.19 707.887 157.362 711.452 Q155.556 714.994 155.556 722.123 Q155.556 729.23 157.362 732.794 Q159.19 736.336 162.802 736.336 Q166.436 736.336 168.241 732.794 Q170.07 729.23 170.07 722.123 Q170.07 714.994 168.241 711.452 Q166.436 707.887 162.802 707.887 M162.802 704.184 Q168.612 704.184 171.667 708.79 Q174.746 713.373 174.746 722.123 Q174.746 730.85 171.667 735.457 Q168.612 740.04 162.802 740.04 Q156.991 740.04 153.913 735.457 Q150.857 730.85 150.857 722.123 Q150.857 713.373 153.913 708.79 Q156.991 704.184 162.802 704.184 Z" fill="#000000" fill-rule="nonzero" fill-opacity="1" /><path clip-path="url(#clip740)" d="M154.839 430.526 L162.477 430.526 L162.477 404.16 L154.167 405.827 L154.167 401.568 L162.431 399.901 L167.107 399.901 L167.107 430.526 L174.746 430.526 L174.746 434.461 L154.839 434.461 L154.839 430.526 Z" fill="#000000" fill-rule="nonzero" fill-opacity="1" /><path clip-path="url(#clip740)" d="M158.427 125.618 L174.746 125.618 L174.746 129.554 L152.802 129.554 L152.802 125.618 Q155.464 122.864 160.047 118.234 Q164.653 113.582 165.834 112.239 Q168.079 109.716 168.959 107.98 Q169.862 106.22 169.862 104.531 Q169.862 101.776 167.917 100.04 Q165.996 98.3038 162.894 98.3038 Q160.695 98.3038 158.241 99.0677 Q155.811 99.8316 153.033 101.382 L153.033 96.6603 Q155.857 95.526 158.311 94.9473 Q160.765 94.3686 162.802 94.3686 Q168.172 94.3686 171.366 97.0538 Q174.561 99.739 174.561 104.23 Q174.561 106.359 173.751 108.281 Q172.964 110.179 170.857 112.771 Q170.278 113.443 167.177 116.66 Q164.075 119.855 158.427 125.618 Z" fill="#000000" fill-rule="nonzero" fill-opacity="1" /><path clip-path="url(#clip740)" d="M16.4842 1032.12 L16.4842 1023.47 L56.238 1002.4 L16.4842 1002.4 L16.4842 996.158 L64.0042 996.158 L64.0042 1004.82 L24.2503 1025.89 L64.0042 1025.89 L64.0042 1032.12 L16.4842 1032.12 Z" fill="#000000" fill-rule="nonzero" fill-opacity="1" /><path clip-path="url(#clip740)" d="M32.4621 969.804 Q32.4621 974.515 36.1542 977.252 Q39.8145 979.989 46.212 979.989 Q52.6095 979.989 56.3017 977.284 Q59.9619 974.547 59.9619 969.804 Q59.9619 965.125 56.2698 962.388 Q52.5777 959.651 46.212 959.651 Q39.8781 959.651 36.186 962.388 Q32.4621 965.125 32.4621 969.804 M27.4968 969.804 Q27.4968 962.165 32.4621 957.805 Q37.4273 953.444 46.212 953.444 Q54.9649 953.444 59.9619 957.805 Q64.9272 962.165 64.9272 969.804 Q64.9272 977.475 59.9619 981.835 Q54.9649 986.164 46.212 986.164 Q37.4273 986.164 32.4621 981.835 Q27.4968 977.475 27.4968 969.804 Z" fill="#000000" fill-rule="nonzero" fill-opacity="1" /><path clip-path="url(#clip740)" d="M33.7671 920.279 L14.479 920.279 L14.479 914.423 L64.0042 914.423 L64.0042 920.279 L58.657 920.279 Q61.8398 922.125 63.3994 924.958 Q64.9272 927.759 64.9272 931.705 Q64.9272 938.167 59.771 942.241 Q54.6147 946.283 46.212 946.283 Q37.8093 946.283 32.6531 942.241 Q27.4968 938.167 27.4968 931.705 Q27.4968 927.759 29.0564 924.958 Q30.5842 922.125 33.7671 920.279 M46.212 940.235 Q52.6732 940.235 56.3653 937.594 Q60.0256 934.92 60.0256 930.273 Q60.0256 925.626 56.3653 922.953 Q52.6732 920.279 46.212 920.279 Q39.7508 920.279 36.0905 922.953 Q32.3984 925.626 32.3984 930.273 Q32.3984 934.92 36.0905 937.594 Q39.7508 940.235 46.212 940.235 Z" fill="#000000" fill-rule="nonzero" fill-opacity="1" /><path clip-path="url(#clip740)" d="M44.7161 871.868 L47.5806 871.868 L47.5806 898.795 Q53.6281 898.413 56.8109 895.166 Q59.9619 891.888 59.9619 886.063 Q59.9619 882.689 59.1344 879.538 Q58.3069 876.356 56.6518 873.236 L62.1899 873.236 Q63.5267 876.387 64.227 879.698 Q64.9272 883.008 64.9272 886.413 Q64.9272 894.943 59.9619 899.941 Q54.9967 904.906 46.5303 904.906 Q37.7774 904.906 32.6531 900.195 Q27.4968 895.453 27.4968 887.432 Q27.4968 880.239 32.1438 876.069 Q36.7589 871.868 44.7161 871.868 M42.9973 877.724 Q38.1912 877.788 35.3266 880.43 Q32.4621 883.04 32.4621 887.368 Q32.4621 892.27 35.2312 895.23 Q38.0002 898.158 43.0292 898.604 L42.9973 877.724 Z" fill="#000000" fill-rule="nonzero" fill-opacity="1" /><path clip-path="url(#clip740)" d="M21.7677 834.851 L39.6235 834.851 L39.6235 826.767 Q39.6235 822.279 37.3 819.828 Q34.9765 817.377 30.6797 817.377 Q26.4147 817.377 24.0912 819.828 Q21.7677 822.279 21.7677 826.767 L21.7677 834.851 M16.4842 841.281 L16.4842 826.767 Q16.4842 818.778 20.1126 814.704 Q23.7092 810.598 30.6797 810.598 Q37.7138 810.598 41.3104 814.704 Q44.907 818.778 44.907 826.767 L44.907 834.851 L64.0042 834.851 L64.0042 841.281 L16.4842 841.281 Z" fill="#000000" fill-rule="nonzero" fill-opacity="1" /><path clip-path="url(#clip740)" d="M32.4621 790.737 Q32.4621 795.447 36.1542 798.185 Q39.8145 800.922 46.212 800.922 Q52.6095 800.922 56.3017 798.217 Q59.9619 795.479 59.9619 790.737 Q59.9619 786.058 56.2698 783.321 Q52.5777 780.584 46.212 780.584 Q39.8781 780.584 36.186 783.321 Q32.4621 786.058 32.4621 790.737 M27.4968 790.737 Q27.4968 783.098 32.4621 778.737 Q37.4273 774.377 46.212 774.377 Q54.9649 774.377 59.9619 778.737 Q64.9272 783.098 64.9272 790.737 Q64.9272 798.408 59.9619 802.768 Q54.9649 807.097 46.212 807.097 Q37.4273 807.097 32.4621 802.768 Q27.4968 798.408 27.4968 790.737 Z" fill="#000000" fill-rule="nonzero" fill-opacity="1" /><path clip-path="url(#clip740)" d="M18.2347 758.876 L28.3562 758.876 L28.3562 746.813 L32.9077 746.813 L32.9077 758.876 L52.2594 758.876 Q56.6199 758.876 57.8613 757.699 Q59.1026 756.489 59.1026 752.829 L59.1026 746.813 L64.0042 746.813 L64.0042 752.829 Q64.0042 759.609 61.4897 762.187 Q58.9434 764.765 52.2594 764.765 L32.9077 764.765 L32.9077 769.062 L28.3562 769.062 L28.3562 764.765 L18.2347 764.765 L18.2347 758.876 Z" fill="#000000" fill-rule="nonzero" fill-opacity="1" /><path clip-path="url(#clip740)" d="M44.7161 708.619 L47.5806 708.619 L47.5806 735.546 Q53.6281 735.164 56.8109 731.918 Q59.9619 728.639 59.9619 722.815 Q59.9619 719.441 59.1344 716.29 Q58.3069 713.107 56.6518 709.988 L62.1899 709.988 Q63.5267 713.139 64.227 716.449 Q64.9272 719.759 64.9272 723.165 Q64.9272 731.695 59.9619 736.692 Q54.9967 741.657 46.5303 741.657 Q37.7774 741.657 32.6531 736.947 Q27.4968 732.204 27.4968 724.183 Q27.4968 716.99 32.1438 712.821 Q36.7589 708.619 44.7161 708.619 M42.9973 714.476 Q38.1912 714.539 35.3266 717.181 Q32.4621 719.791 32.4621 724.12 Q32.4621 729.021 35.2312 731.981 Q38.0002 734.91 43.0292 735.355 L42.9973 714.476 Z" fill="#000000" fill-rule="nonzero" fill-opacity="1" /><path clip-path="url(#clip740)" d="M42.4881 669.375 L64.0042 669.375 L64.0042 675.231 L42.679 675.231 Q37.6183 675.231 35.1038 677.204 Q32.5894 679.178 32.5894 683.125 Q32.5894 687.867 35.6131 690.604 Q38.6368 693.342 43.8567 693.342 L64.0042 693.342 L64.0042 699.23 L28.3562 699.23 L28.3562 693.342 L33.8944 693.342 Q30.6797 691.241 29.0883 688.408 Q27.4968 685.544 27.4968 681.82 Q27.4968 675.677 31.3163 672.526 Q35.1038 669.375 42.4881 669.375 Z" fill="#000000" fill-rule="nonzero" fill-opacity="1" /><path clip-path="url(#clip740)" d="M18.2347 651.901 L28.3562 651.901 L28.3562 639.838 L32.9077 639.838 L32.9077 651.901 L52.2594 651.901 Q56.6199 651.901 57.8613 650.723 Q59.1026 649.514 59.1026 645.853 L59.1026 639.838 L64.0042 639.838 L64.0042 645.853 Q64.0042 652.633 61.4897 655.211 Q58.9434 657.789 52.2594 657.789 L32.9077 657.789 L32.9077 662.086 L28.3562 662.086 L28.3562 657.789 L18.2347 657.789 L18.2347 651.901 Z" fill="#000000" fill-rule="nonzero" fill-opacity="1" /><path clip-path="url(#clip740)" d="M28.3562 632.135 L28.3562 626.279 L64.0042 626.279 L64.0042 632.135 L28.3562 632.135 M14.479 632.135 L14.479 626.279 L21.895 626.279 L21.895 632.135 L14.479 632.135 Z" fill="#000000" fill-rule="nonzero" fill-opacity="1" /><path clip-path="url(#clip740)" d="M46.0847 597.824 Q46.0847 604.922 47.7079 607.659 Q49.3312 610.396 53.2461 610.396 Q56.3653 610.396 58.2114 608.359 Q60.0256 606.29 60.0256 602.758 Q60.0256 597.888 56.5881 594.96 Q53.1188 591.999 47.3897 591.999 L46.0847 591.999 L46.0847 597.824 M43.6657 586.143 L64.0042 586.143 L64.0042 591.999 L58.5933 591.999 Q61.8398 594.005 63.3994 596.997 Q64.9272 599.988 64.9272 604.317 Q64.9272 609.792 61.8716 613.038 Q58.7843 616.253 53.6281 616.253 Q47.6125 616.253 44.5569 612.242 Q41.5014 608.2 41.5014 600.211 L41.5014 591.999 L40.9285 591.999 Q36.8862 591.999 34.6901 594.673 Q32.4621 597.315 32.4621 602.121 Q32.4621 605.176 33.1941 608.073 Q33.9262 610.969 35.3903 613.643 L29.9795 613.643 Q28.7381 610.428 28.1334 607.404 Q27.4968 604.381 27.4968 601.516 Q27.4968 593.782 31.5072 589.962 Q35.5176 586.143 43.6657 586.143 Z" fill="#000000" fill-rule="nonzero" fill-opacity="1" /><path clip-path="url(#clip740)" d="M14.479 574.08 L14.479 568.224 L64.0042 568.224 L64.0042 574.08 L14.479 574.08 Z" fill="#000000" fill-rule="nonzero" fill-opacity="1" /><path clip-path="url(#clip740)" d="M29.4065 533.244 L34.9447 533.244 Q33.6716 535.727 33.035 538.4 Q32.3984 541.074 32.3984 543.938 Q32.3984 548.299 33.7352 550.495 Q35.072 552.659 37.7456 552.659 Q39.7826 552.659 40.9603 551.1 Q42.1061 549.54 43.1565 544.83 L43.6021 542.824 Q44.9389 536.586 47.3897 533.976 Q49.8086 531.334 54.1691 531.334 Q59.1344 531.334 62.0308 535.281 Q64.9272 539.196 64.9272 546.071 Q64.9272 548.935 64.3543 552.055 Q63.8132 555.142 62.6992 558.58 L56.6518 558.58 Q58.3387 555.333 59.198 552.182 Q60.0256 549.031 60.0256 545.944 Q60.0256 541.806 58.6251 539.578 Q57.1929 537.35 54.6147 537.35 Q52.2276 537.35 50.9545 538.973 Q49.6813 540.565 48.5037 546.007 L48.0262 548.044 Q46.8804 553.487 44.5251 555.906 Q42.138 558.325 38.0002 558.325 Q32.9713 558.325 30.2341 554.76 Q27.4968 551.195 27.4968 544.639 Q27.4968 541.392 27.9743 538.528 Q28.4517 535.663 29.4065 533.244 Z" fill="#000000" fill-rule="nonzero" fill-opacity="1" /><path clip-path="url(#clip740)" d="M14.479 522.55 L14.479 509.054 L19.0304 509.054 L19.0304 516.693 L68.0464 516.693 L68.0464 509.054 L72.5979 509.054 L72.5979 522.55 L14.479 522.55 Z" fill="#000000" fill-rule="nonzero" fill-opacity="1" /><path clip-path="url(#clip740)" d="M64.0042 484.069 L16.4842 502.211 L16.4842 495.495 L56.4926 480.44 L16.4842 465.354 L16.4842 458.67 L64.0042 476.78 L64.0042 484.069 Z" fill="#000000" fill-rule="nonzero" fill-opacity="1" /><path clip-path="url(#clip740)" d="M14.479 438.299 L72.5979 438.299 L72.5979 451.795 L68.0464 451.795 L68.0464 444.188 L19.0304 444.188 L19.0304 451.795 L14.479 451.795 L14.479 438.299 Z" fill="#000000" fill-rule="nonzero" fill-opacity="1" /><polyline clip-path="url(#clip742)" style="stroke:#009af9; stroke-linecap:round; stroke-linejoin:round; stroke-width:4; stroke-opacity:1; fill:none" points="271.369,1384.24 291.44,1379.12 307.629,1356.51 326.627,1348.69 345.459,1327.01 363.961,1327.57 379.572,1315.94 398.9,1306.08 415.255,1292.68 440.943,1274.81 457.049,1261.97 475.304,1256.01 494.136,1239.64 509.747,1230.43 528.745,1224.75 550.716,1216.38 569.218,1194.04 588.793,1183.34 604.404,1169.01 621.668,1163.34 642.812,1147.52 660.571,1128.82 683.533,1127.88 696.501,1119.23 720.29,1100.71 734.909,1080.52 754.155,1075.68 770.592,1074.19 791.985,1047.68 808.174,1045.63 829.897,1027.76 848.399,1018.83 866.654,1012.78 884.33,990.17 901.84,981.795 921.416,965.698 938.349,957.695 960.568,943.645 972.957,938.062 996.25,915.637 1014.26,907.634 1029.62,896.282 1047.3,884.651 1070.92,871.531 1088.59,855.433 1102.88,847.71 1126.42,839.335 1144.93,827.425 1161.12,810.769 1179.87,793.182 1194.16,786.576 1220.34,778.294 1237.85,765.174 1253.96,756.8 1272.21,740.144 1292.61,736.515 1312.44,718.091 1331.76,697.806 1352.08,687.663 1368.52,679.94 1387.85,670.635 1407.92,659.376 1424.85,648.303 1444.18,634.904 1463.76,616.387 1481.76,607.175 1499.19,594.706 1516.7,586.052 1535.2,578.608 1555.6,564.558 1574.11,546.971 1591.29,539.248 1610.37,519.242 1630.19,513.287 1646.88,503.144 1668.52,492.164 1686.28,472.438 1702.71,462.947 1721.71,455.782 1738.89,440.894 1760.61,428.983 1779.45,417.91 1792.08,409.536 1814.3,394.648 1832.89,383.668 1851.14,364.592 1867.5,356.776 1887.9,344.866 1905.08,342.167 1924.16,327.931 1941.09,311.554 1961.99,301.69 1979.17,286.802 2000.56,270.705 2017.49,265.308 2034.18,251.629 2051.69,243.813 2070.69,232.833 2090.02,217.014 2111.41,197.66 2126.77,190.774 2147.92,181.283 2162.54,168.721 2183.19,150.856 2199.79,139.504 2223.33,135.968 2238.94,115.962 2256.2,106.471 2270.74,99.5849 2292.13,86.1857 "/>
<polyline clip-path="url(#clip742)" style="stroke:#e26f46; stroke-linecap:round; stroke-linejoin:round; stroke-width:4; stroke-opacity:1; fill:none" points="271.369,1118.96 291.44,1113.14 307.629,1105.33 326.627,1097.86 345.459,1090.93 363.961,1083.72 379.572,1075.67 398.9,1068.29 415.255,1062.48 440.943,1052.94 457.049,1046.01 475.304,1039.52 494.136,1032.82 509.747,1024.7 528.745,1018.37 550.716,1010.77 569.218,1004.07 588.793,995.412 604.404,988.782 621.668,982.594 642.812,974.708 660.571,966.66 683.533,961.286 696.501,952.423 720.29,947.421 734.909,939.908 754.155,931.324 770.592,925.229 791.985,918.506 808.174,911.132 829.897,903.013 848.399,895.941 866.654,889.242 884.33,881.774 901.84,873.726 921.416,867.77 938.349,860.257 960.568,852.719 972.957,845.857 996.25,839.902 1014.26,830.666 1029.62,824.711 1047.3,816.127 1070.92,810.544 1088.59,802.937 1102.88,794.889 1126.42,788.119 1144.93,781.559 1161.12,772.999 1179.87,767.253 1194.16,759.506 1220.34,753.086 1237.85,744.153 1253.96,737.663 1272.21,731.707 1292.61,722.705 1312.44,717.099 1331.76,708.305 1352.08,702.28 1368.52,694.231 1387.85,688.951 1407.92,680.972 1424.85,672.853 1444.18,665.246 1463.76,658.616 1481.76,650.8 1499.19,643.496 1516.7,635.284 1535.2,628.724 1555.6,622.397 1574.11,614.045 1591.29,608.323 1610.37,600.716 1630.19,594.458 1646.88,586.27 1668.52,578.733 1686.28,572.777 1702.71,565.845 1721.71,559.285 1738.89,550.655 1760.61,543.629 1779.45,536.93 1792.08,529.323 1814.3,522.414 1832.89,514.644 1851.14,508.014 1867.5,500.873 1887.9,493.429 1905.08,486.869 1924.16,479.494 1941.09,471.283 1961.99,465.188 1979.17,456.837 2000.56,450.137 2017.49,443.205 2034.18,436.04 2051.69,428.805 2070.69,420.989 2090.02,414.964 2111.41,408.032 2126.77,400.355 2147.92,393.562 2162.54,386.63 2183.19,379.489 2199.79,372.184 2223.33,365.415 2238.94,358.25 2256.2,350.131 2270.74,343.129 2292.13,336.127 "/>
<path clip-path="url(#clip740)" d="M282.146 248.629 L541.625 248.629 L541.625 93.1086 L282.146 93.1086  Z" fill="#ffffff" fill-rule="evenodd" fill-opacity="1"/>
<polyline clip-path="url(#clip740)" style="stroke:#000000; stroke-linecap:round; stroke-linejoin:round; stroke-width:4; stroke-opacity:1; fill:none" points="282.146,248.629 541.625,248.629 541.625,93.1086 282.146,93.1086 282.146,248.629 "/>
<polyline clip-path="url(#clip740)" style="stroke:#009af9; stroke-linecap:round; stroke-linejoin:round; stroke-width:4; stroke-opacity:1; fill:none" points="305.946,144.949 448.747,144.949 "/>
<path clip-path="url(#clip740)" d="M487.64 126.21 L487.64 135.77 Q492.246 135.77 495.325 139.312 Q498.496 142.923 498.496 149.289 Q498.496 155.655 495.325 159.266 Q492.246 162.807 487.64 162.807 L487.64 172.09 L483.404 172.09 L483.404 162.807 Q478.797 162.807 475.695 159.266 Q472.547 155.655 472.547 149.289 Q472.547 142.923 475.695 139.312 Q478.797 135.77 483.404 135.77 L483.404 126.21 L487.64 126.21 M487.64 159.011 Q490.255 159.011 492.038 156.627 Q493.982 153.965 494.005 149.289 Q494.029 144.659 492.038 141.951 Q490.255 139.567 487.64 139.567 L487.64 159.011 M483.404 159.011 L483.404 139.567 Q480.788 139.567 479.029 141.951 Q477.015 144.659 477.038 149.289 Q477.061 153.965 479.029 156.627 Q480.788 159.011 483.404 159.011 Z" fill="#000000" fill-rule="nonzero" fill-opacity="1" /><path clip-path="url(#clip740)" d="M507.431 159.59 L517.246 159.59 L517.246 162.229 L503.403 162.229 L503.403 159.682 Q504.191 158.965 505.649 157.668 Q513.612 150.608 513.612 148.432 Q513.612 146.905 512.408 145.979 Q511.204 145.03 509.237 145.03 Q508.033 145.03 506.621 145.446 Q505.209 145.84 503.542 146.65 L503.542 143.803 Q505.325 143.155 506.853 142.831 Q508.403 142.507 509.723 142.507 Q513.079 142.507 515.093 144.034 Q517.107 145.562 517.107 148.062 Q517.107 151.28 509.445 157.854 Q508.149 158.965 507.431 159.59 Z" fill="#000000" fill-rule="nonzero" fill-opacity="1" /><polyline clip-path="url(#clip740)" style="stroke:#e26f46; stroke-linecap:round; stroke-linejoin:round; stroke-width:4; stroke-opacity:1; fill:none" points="305.946,196.789 448.747,196.789 "/>
<path clip-path="url(#clip740)" d="M487.64 178.05 L487.64 187.61 Q492.246 187.61 495.325 191.152 Q498.496 194.763 498.496 201.129 Q498.496 207.495 495.325 211.106 Q492.246 214.647 487.64 214.647 L487.64 223.93 L483.404 223.93 L483.404 214.647 Q478.797 214.647 475.695 211.106 Q472.547 207.495 472.547 201.129 Q472.547 194.763 475.695 191.152 Q478.797 187.61 483.404 187.61 L483.404 178.05 L487.64 178.05 M487.64 210.851 Q490.255 210.851 492.038 208.467 Q493.982 205.805 494.005 201.129 Q494.029 196.499 492.038 193.791 Q490.255 191.407 487.64 191.407 L487.64 210.851 M483.404 210.851 L483.404 191.407 Q480.788 191.407 479.029 193.791 Q477.015 196.499 477.038 201.129 Q477.061 205.805 479.029 208.467 Q480.788 210.851 483.404 210.851 Z" fill="#000000" fill-rule="nonzero" fill-opacity="1" /><path clip-path="url(#clip740)" d="M513.357 203.606 Q515.487 204.022 516.644 205.296 Q517.825 206.546 517.825 208.444 Q517.825 211.314 515.626 212.865 Q513.427 214.416 509.329 214.416 Q508.01 214.416 506.552 214.161 Q505.116 213.93 503.496 213.467 L503.496 210.666 Q504.7 211.291 506.066 211.592 Q507.454 211.893 509.005 211.893 Q511.528 211.893 512.917 210.99 Q514.306 210.064 514.306 208.444 Q514.306 206.731 513.01 205.851 Q511.737 204.971 509.237 204.971 L507.246 204.971 L507.246 202.471 L509.422 202.471 Q511.598 202.471 512.709 201.754 Q513.843 201.013 513.843 199.624 Q513.843 198.282 512.686 197.587 Q511.528 196.87 509.329 196.87 Q508.403 196.87 507.223 197.078 Q506.042 197.286 504.167 197.819 L504.167 195.157 Q505.857 194.763 507.339 194.555 Q508.82 194.347 510.093 194.347 Q513.427 194.347 515.371 195.712 Q517.339 197.078 517.339 199.37 Q517.339 200.967 516.297 202.078 Q515.255 203.189 513.357 203.606 Z" fill="#000000" fill-rule="nonzero" fill-opacity="1" /></svg>
