<?xml version="1.0" encoding="utf-8" standalone="no"?>
<!DOCTYPE svg PUBLIC "-//W3C//DTD SVG 1.1//EN"
  "http://www.w3.org/Graphics/SVG/1.1/DTD/svg11.dtd">
<svg xmlns:xlink="http://www.w3.org/1999/xlink" width="432pt" height="288pt" viewBox="0 0 432 288" xmlns="http://www.w3.org/2000/svg" version="1.1">
 <metadata>
  <rdf:RDF xmlns:dc="http://purl.org/dc/elements/1.1/" xmlns:cc="http://creativecommons.org/ns#" xmlns:rdf="http://www.w3.org/1999/02/22-rdf-syntax-ns#">
   <cc:Work>
    <dc:type rdf:resource="http://purl.org/dc/dcmitype/StillImage"/>
    <dc:date>2024-01-28T14:21:13.066000</dc:date>
    <dc:format>image/svg+xml</dc:format>
    <dc:creator>
     <cc:Agent>
      <dc:title>Matplotlib v3.8.2, https://matplotlib.org/</dc:title>
     </cc:Agent>
    </dc:creator>
   </cc:Work>
  </rdf:RDF>
 </metadata>
 <defs>
  <style type="text/css">*{stroke-linejoin: round; stroke-linecap: butt}</style>
 </defs>
 <g id="figure_1">
  <g id="patch_1">
   <path d="M 0 288 
L 432 288 
L 432 0 
L 0 0 
L 0 288 
z
" style="fill: none"/>
  </g>
  <g id="axes_1">
   <g id="patch_2">
    <path d="M 44.002787 112.929354 
L 429.165354 112.929354 
L 429.165354 2.834646 
L 44.002787 2.834646 
L 44.002787 112.929354 
z
" style="fill: none"/>
   </g>
   <g id="matplotlib.axis_1">
    <g id="xtick_1">
     <g id="line2d_1">
      <path d="M 176.023918 112.929354 
L 176.023918 2.834646 
" clip-path="url(#p91f12eecfb)" style="fill: none; stroke: #000000; stroke-opacity: 0.1; stroke-width: 0.5; stroke-linecap: square"/>
     </g>
     <g id="line2d_2">
      <defs>
       <path id="m2a2f01026b" d="M 0 0 
L 0 -2.5 
" style="stroke: #000000; stroke-width: 0.5"/>
      </defs>
      <g>
       <use xlink:href="#m2a2f01026b" x="176.023918" y="112.929354" style="stroke: #000000; stroke-width: 0.5"/>
      </g>
     </g>
     <g id="text_1">
      <!-- $10^{2}$ -->
      <g transform="translate(168.983918 122.508104) scale(0.08 -0.08)">
       <defs>
        <path id="DejaVuSans-31" d="M 794 531 
L 1825 531 
L 1825 4091 
L 703 3866 
L 703 4441 
L 1819 4666 
L 2450 4666 
L 2450 531 
L 3481 531 
L 3481 0 
L 794 0 
L 794 531 
z
" transform="scale(0.015625)"/>
        <path id="DejaVuSans-30" d="M 2034 4250 
Q 1547 4250 1301 3770 
Q 1056 3291 1056 2328 
Q 1056 1369 1301 889 
Q 1547 409 2034 409 
Q 2525 409 2770 889 
Q 3016 1369 3016 2328 
Q 3016 3291 2770 3770 
Q 2525 4250 2034 4250 
z
M 2034 4750 
Q 2819 4750 3233 4129 
Q 3647 3509 3647 2328 
Q 3647 1150 3233 529 
Q 2819 -91 2034 -91 
Q 1250 -91 836 529 
Q 422 1150 422 2328 
Q 422 3509 836 4129 
Q 1250 4750 2034 4750 
z
" transform="scale(0.015625)"/>
        <path id="DejaVuSans-32" d="M 1228 531 
L 3431 531 
L 3431 0 
L 469 0 
L 469 531 
Q 828 903 1448 1529 
Q 2069 2156 2228 2338 
Q 2531 2678 2651 2914 
Q 2772 3150 2772 3378 
Q 2772 3750 2511 3984 
Q 2250 4219 1831 4219 
Q 1534 4219 1204 4116 
Q 875 4013 500 3803 
L 500 4441 
Q 881 4594 1212 4672 
Q 1544 4750 1819 4750 
Q 2544 4750 2975 4387 
Q 3406 4025 3406 3419 
Q 3406 3131 3298 2873 
Q 3191 2616 2906 2266 
Q 2828 2175 2409 1742 
Q 1991 1309 1228 531 
z
" transform="scale(0.015625)"/>
       </defs>
       <use xlink:href="#DejaVuSans-31" transform="translate(0 0.765625)"/>
       <use xlink:href="#DejaVuSans-30" transform="translate(63.623047 0.765625)"/>
       <use xlink:href="#DejaVuSans-32" transform="translate(128.203125 39.046875) scale(0.7)"/>
      </g>
     </g>
    </g>
    <g id="xtick_2">
     <g id="line2d_3">
      <path d="M 418.264527 112.929354 
L 418.264527 2.834646 
" clip-path="url(#p91f12eecfb)" style="fill: none; stroke: #000000; stroke-opacity: 0.1; stroke-width: 0.5; stroke-linecap: square"/>
     </g>
     <g id="line2d_4">
      <g>
       <use xlink:href="#m2a2f01026b" x="418.264527" y="112.929354" style="stroke: #000000; stroke-width: 0.5"/>
      </g>
     </g>
     <g id="text_2">
      <!-- $10^{4}$ -->
      <g transform="translate(411.224527 122.508104) scale(0.08 -0.08)">
       <defs>
        <path id="DejaVuSans-34" d="M 2419 4116 
L 825 1625 
L 2419 1625 
L 2419 4116 
z
M 2253 4666 
L 3047 4666 
L 3047 1625 
L 3713 1625 
L 3713 1100 
L 3047 1100 
L 3047 0 
L 2419 0 
L 2419 1100 
L 313 1100 
L 313 1709 
L 2253 4666 
z
" transform="scale(0.015625)"/>
       </defs>
       <use xlink:href="#DejaVuSans-31" transform="translate(0 0.684375)"/>
       <use xlink:href="#DejaVuSans-30" transform="translate(63.623047 0.684375)"/>
       <use xlink:href="#DejaVuSans-34" transform="translate(128.203125 38.965625) scale(0.7)"/>
      </g>
     </g>
    </g>
    <g id="xtick_3">
     <g id="line2d_5">
      <defs>
       <path id="m72fa0c5577" d="M 0 0 
L 0 2 
" style="stroke: #000000; stroke-width: 0.6"/>
      </defs>
      <g>
       <use xlink:href="#m72fa0c5577" x="54.903614" y="112.929354" style="stroke: #000000; stroke-width: 0.6"/>
      </g>
     </g>
    </g>
    <g id="xtick_4">
     <g id="line2d_6">
      <g>
       <use xlink:href="#m72fa0c5577" x="297.144223" y="112.929354" style="stroke: #000000; stroke-width: 0.6"/>
      </g>
     </g>
    </g>
    <g id="text_3">
     <!-- f [Hz] -->
     <g transform="translate(221.585399 136.530136) scale(0.11 -0.11)">
      <defs>
       <path id="DejaVuSans-66" d="M 2375 4863 
L 2375 4384 
L 1825 4384 
Q 1516 4384 1395 4259 
Q 1275 4134 1275 3809 
L 1275 3500 
L 2222 3500 
L 2222 3053 
L 1275 3053 
L 1275 0 
L 697 0 
L 697 3053 
L 147 3053 
L 147 3500 
L 697 3500 
L 697 3744 
Q 697 4328 969 4595 
Q 1241 4863 1831 4863 
L 2375 4863 
z
" transform="scale(0.015625)"/>
       <path id="DejaVuSans-20" transform="scale(0.015625)"/>
       <path id="DejaVuSans-5b" d="M 550 4863 
L 1875 4863 
L 1875 4416 
L 1125 4416 
L 1125 -397 
L 1875 -397 
L 1875 -844 
L 550 -844 
L 550 4863 
z
" transform="scale(0.015625)"/>
       <path id="DejaVuSans-48" d="M 628 4666 
L 1259 4666 
L 1259 2753 
L 3553 2753 
L 3553 4666 
L 4184 4666 
L 4184 0 
L 3553 0 
L 3553 2222 
L 1259 2222 
L 1259 0 
L 628 0 
L 628 4666 
z
" transform="scale(0.015625)"/>
       <path id="DejaVuSans-7a" d="M 353 3500 
L 3084 3500 
L 3084 2975 
L 922 459 
L 3084 459 
L 3084 0 
L 275 0 
L 275 525 
L 2438 3041 
L 353 3041 
L 353 3500 
z
" transform="scale(0.015625)"/>
       <path id="DejaVuSans-5d" d="M 1947 4863 
L 1947 -844 
L 622 -844 
L 622 -397 
L 1369 -397 
L 1369 4416 
L 622 4416 
L 622 4863 
L 1947 4863 
z
" transform="scale(0.015625)"/>
      </defs>
      <use xlink:href="#DejaVuSans-66"/>
      <use xlink:href="#DejaVuSans-20" x="35.205078"/>
      <use xlink:href="#DejaVuSans-5b" x="66.992188"/>
      <use xlink:href="#DejaVuSans-48" x="106.005859"/>
      <use xlink:href="#DejaVuSans-7a" x="181.201172"/>
      <use xlink:href="#DejaVuSans-5d" x="233.691406"/>
     </g>
    </g>
   </g>
   <g id="matplotlib.axis_2">
    <g id="ytick_1">
     <g id="line2d_7">
      <path d="M 44.002787 91.492638 
L 429.165354 91.492638 
" clip-path="url(#p91f12eecfb)" style="fill: none; stroke: #000000; stroke-opacity: 0.1; stroke-width: 0.5; stroke-linecap: square"/>
     </g>
     <g id="line2d_8">
      <defs>
       <path id="md0e2a12449" d="M 0 0 
L 2.5 0 
" style="stroke: #000000; stroke-width: 0.5"/>
      </defs>
      <g>
       <use xlink:href="#md0e2a12449" x="44.002787" y="91.492638" style="stroke: #000000; stroke-width: 0.5"/>
      </g>
     </g>
     <g id="text_4">
      <!-- $10^{-2}$ -->
      <g transform="translate(21.702787 94.532013) scale(0.08 -0.08)">
       <defs>
        <path id="DejaVuSans-2212" d="M 678 2272 
L 4684 2272 
L 4684 1741 
L 678 1741 
L 678 2272 
z
" transform="scale(0.015625)"/>
       </defs>
       <use xlink:href="#DejaVuSans-31" transform="translate(0 0.765625)"/>
       <use xlink:href="#DejaVuSans-30" transform="translate(63.623047 0.765625)"/>
       <use xlink:href="#DejaVuSans-2212" transform="translate(128.203125 39.046875) scale(0.7)"/>
       <use xlink:href="#DejaVuSans-32" transform="translate(186.855469 39.046875) scale(0.7)"/>
      </g>
     </g>
    </g>
    <g id="ytick_2">
     <g id="line2d_9">
      <path d="M 44.002787 57.814644 
L 429.165354 57.814644 
" clip-path="url(#p91f12eecfb)" style="fill: none; stroke: #000000; stroke-opacity: 0.1; stroke-width: 0.5; stroke-linecap: square"/>
     </g>
     <g id="line2d_10">
      <g>
       <use xlink:href="#md0e2a12449" x="44.002787" y="57.814644" style="stroke: #000000; stroke-width: 0.5"/>
      </g>
     </g>
     <g id="text_5">
      <!-- $10^{-1}$ -->
      <g transform="translate(21.702787 60.854019) scale(0.08 -0.08)">
       <use xlink:href="#DejaVuSans-31" transform="translate(0 0.684375)"/>
       <use xlink:href="#DejaVuSans-30" transform="translate(63.623047 0.684375)"/>
       <use xlink:href="#DejaVuSans-2212" transform="translate(128.203125 38.965625) scale(0.7)"/>
       <use xlink:href="#DejaVuSans-31" transform="translate(186.855469 38.965625) scale(0.7)"/>
      </g>
     </g>
    </g>
    <g id="ytick_3">
     <g id="line2d_11">
      <path d="M 44.002787 24.13665 
L 429.165354 24.13665 
" clip-path="url(#p91f12eecfb)" style="fill: none; stroke: #000000; stroke-opacity: 0.1; stroke-width: 0.5; stroke-linecap: square"/>
     </g>
     <g id="line2d_12">
      <g>
       <use xlink:href="#md0e2a12449" x="44.002787" y="24.13665" style="stroke: #000000; stroke-width: 0.5"/>
      </g>
     </g>
     <g id="text_6">
      <!-- $10^{0}$ -->
      <g transform="translate(26.422787 27.176025) scale(0.08 -0.08)">
       <use xlink:href="#DejaVuSans-31" transform="translate(0 0.765625)"/>
       <use xlink:href="#DejaVuSans-30" transform="translate(63.623047 0.765625)"/>
       <use xlink:href="#DejaVuSans-30" transform="translate(128.203125 39.046875) scale(0.7)"/>
      </g>
     </g>
    </g>
    <g id="text_7">
     <!-- |U| [V] -->
     <g transform="translate(15.109193 75.414969) rotate(-90) scale(0.11 -0.11)">
      <defs>
       <path id="DejaVuSans-7c" d="M 1344 4891 
L 1344 -1509 
L 813 -1509 
L 813 4891 
L 1344 4891 
z
" transform="scale(0.015625)"/>
       <path id="DejaVuSans-55" d="M 556 4666 
L 1191 4666 
L 1191 1831 
Q 1191 1081 1462 751 
Q 1734 422 2344 422 
Q 2950 422 3222 751 
Q 3494 1081 3494 1831 
L 3494 4666 
L 4128 4666 
L 4128 1753 
Q 4128 841 3676 375 
Q 3225 -91 2344 -91 
Q 1459 -91 1007 375 
Q 556 841 556 1753 
L 556 4666 
z
" transform="scale(0.015625)"/>
       <path id="DejaVuSans-56" d="M 1831 0 
L 50 4666 
L 709 4666 
L 2188 738 
L 3669 4666 
L 4325 4666 
L 2547 0 
L 1831 0 
z
" transform="scale(0.015625)"/>
      </defs>
      <use xlink:href="#DejaVuSans-7c"/>
      <use xlink:href="#DejaVuSans-55" x="33.691406"/>
      <use xlink:href="#DejaVuSans-7c" x="106.884766"/>
      <use xlink:href="#DejaVuSans-20" x="140.576172"/>
      <use xlink:href="#DejaVuSans-5b" x="172.363281"/>
      <use xlink:href="#DejaVuSans-56" x="211.376953"/>
      <use xlink:href="#DejaVuSans-5d" x="279.785156"/>
     </g>
    </g>
   </g>
   <g id="line2d_13">
    <path d="M 54.903614 10.835527 
L 60.958764 10.832159 
L 67.018761 10.835527 
L 73.088878 10.835527 
L 79.13122 10.840578 
L 85.175424 10.847314 
L 91.232789 10.848998 
L 97.302272 10.85405 
L 103.354114 10.855733 
L 109.400603 10.855733 
L 115.459147 10.758067 
L 121.517796 10.747964 
L 127.574849 10.741228 
L 133.633744 10.726073 
L 139.689167 10.709234 
L 145.739976 10.678924 
L 151.803413 10.653665 
L 157.852471 10.613252 
L 163.910018 10.571154 
L 169.970799 10.510534 
L 176.023918 10.436442 
L 182.079068 10.342144 
L 188.139065 10.224271 
L 194.209183 10.076088 
L 200.251524 9.884123 
L 206.295729 9.655113 
L 212.353094 9.363798 
L 218.422577 8.995024 
L 224.474418 8.547107 
L 230.520908 8.087402 
L 236.579452 7.45594 
L 242.638101 6.758806 
L 248.695153 6.169441 
L 254.754048 5.950534 
L 260.809471 6.624094 
L 266.860281 8.484803 
L 272.923718 11.401317 
L 278.972775 14.876886 
L 285.030322 18.754907 
L 291.091103 22.623835 
L 297.144223 26.497478 
L 303.199373 30.326666 
L 309.259369 34.071658 
L 315.329487 37.750979 
L 321.371828 41.329266 
L 327.416033 44.915972 
L 333.473398 48.452162 
L 339.542881 51.971512 
L 345.594723 55.423506 
L 351.641212 58.858662 
L 357.699756 62.293817 
L 363.758405 65.712134 
L 369.815458 69.147289 
L 375.874353 72.531927 
L 381.929776 75.882888 
L 387.980585 79.250687 
L 394.044022 82.618486 
L 400.093079 85.969447 
L 406.150627 89.303568 
L 412.211407 92.620851 
L 418.264527 95.971811 
" clip-path="url(#p91f12eecfb)" style="fill: none; stroke: #009afa"/>
   </g>
   <g id="line2d_14">
    <path d="M 54.903614 24.493805 
L 60.958764 24.496163 
L 67.018761 24.494984 
L 73.088878 24.495994 
L 79.13122 24.496163 
L 85.175424 24.499025 
L 91.232789 24.499699 
L 97.302272 24.500541 
L 103.354114 24.499194 
L 109.400603 24.49751 
L 115.459147 24.430491 
L 121.517796 24.423755 
L 127.574849 24.409947 
L 133.633744 24.396476 
L 139.689167 24.377448 
L 145.739976 24.351853 
L 151.803413 24.322553 
L 157.852471 24.284463 
L 163.910018 24.239436 
L 169.970799 24.178462 
L 176.023918 24.111021 
L 182.079068 24.01322 
L 188.139065 23.901746 
L 194.209183 23.752048 
L 200.251524 23.568503 
L 206.295729 23.33764 
L 212.353094 23.048514 
L 218.422577 22.684118 
L 224.474418 22.243947 
L 230.520908 21.708467 
L 236.579452 21.147728 
L 242.638101 20.467433 
L 248.695153 19.884804 
L 254.754048 19.655793 
L 260.809471 20.302411 
L 266.860281 22.092396 
L 272.923718 24.955699 
L 278.972775 28.410388 
L 285.030322 32.276621 
L 291.091103 36.198424 
L 297.144223 40.025928 
L 303.199373 43.871955 
L 309.259369 47.593373 
L 315.329487 51.281113 
L 321.371828 54.884659 
L 327.416033 58.471365 
L 333.473398 61.990715 
L 339.542881 65.493227 
L 345.594723 68.96206 
L 351.641212 72.346698 
L 357.699756 75.832371 
L 363.758405 79.267526 
L 369.815458 82.736359 
L 375.874353 86.104159 
L 381.929776 89.505636 
L 387.980585 92.907113 
L 394.044022 96.308591 
L 400.093079 99.693229 
L 406.150627 103.061029 
L 412.211407 106.411989 
L 418.264527 109.813466 
" clip-path="url(#p91f12eecfb)" style="fill: none; stroke: #e36f47"/>
   </g>
   <g id="patch_3">
    <path d="M 44.002787 112.929354 
L 44.002787 2.834646 
" style="fill: none; stroke: #000000; stroke-linejoin: miter; stroke-linecap: square"/>
   </g>
   <g id="patch_4">
    <path d="M 44.002787 112.929354 
L 429.165354 112.929354 
" style="fill: none; stroke: #000000; stroke-linejoin: miter; stroke-linecap: square"/>
   </g>
   <g id="line2d_15">
    <path d="M 54.903614 24.292057 
L 60.958764 24.288706 
L 67.018761 24.281954 
L 73.088878 24.271615 
L 79.13122 24.266816 
L 85.175424 24.257908 
L 91.232789 24.250246 
L 97.302272 24.24341 
L 103.354114 24.231269 
L 109.400603 24.221822 
L 115.459147 24.24538 
L 121.517796 24.233121 
L 127.574849 24.20921 
L 133.633744 24.18257 
L 139.689167 24.145193 
L 145.739976 24.100581 
L 151.803413 24.049205 
L 157.852471 23.976815 
L 163.910018 23.890969 
L 169.970799 23.7832 
L 176.023918 23.641752 
L 182.079068 23.473867 
L 188.139065 23.259002 
L 194.209183 22.988736 
L 200.251524 22.657681 
L 206.295729 22.250683 
L 212.353094 21.735409 
L 218.422577 21.073637 
L 224.474418 20.304095 
L 230.520908 19.379634 
L 236.579452 18.376029 
L 242.638101 17.15857 
L 248.695153 15.956266 
L 254.754048 15.057063 
L 260.809471 14.950977 
L 266.860281 15.924271 
L 272.923718 17.833814 
L 278.972775 20.287256 
L 285.030322 22.960952 
L 291.091103 25.582952 
L 297.144223 28.198216 
L 303.199373 30.636503 
L 309.259369 32.970388 
L 315.329487 35.191452 
L 321.371828 37.330004 
L 327.416033 39.359103 
L 333.473398 41.26191 
L 339.542881 43.147878 
L 345.594723 45.017006 
L 351.641212 46.835618 
L 357.699756 48.65423 
L 363.758405 50.405485 
L 369.815458 52.17358 
L 375.874353 53.874319 
L 381.929776 55.608735 
L 387.980585 57.343152 
L 394.044022 59.027052 
L 400.093079 60.710951 
L 406.150627 62.41169 
L 412.211407 64.078751 
L 418.264527 65.796329 
" clip-path="url(#p91f12eecfb)" style="fill: none; stroke: #3ea44e"/>
   </g>
   <g id="line2d_16">
    <path d="M 54.903614 24.177502 
L 60.958764 24.175818 
L 67.018761 24.174083 
L 73.088878 24.175245 
L 79.13122 24.172231 
L 85.175424 24.174269 
L 91.232789 24.173258 
L 97.302272 24.172652 
L 103.354114 24.172686 
L 109.400603 24.17149 
L 115.459147 24.175683 
L 121.517796 24.17282 
L 127.574849 24.175666 
L 133.633744 24.173191 
L 139.689167 24.167651 
L 145.739976 24.176138 
L 151.803413 24.171827 
L 157.852471 24.172517 
L 163.910018 24.170884 
L 169.970799 24.169469 
L 176.023918 24.166927 
L 182.079068 24.164519 
L 188.139065 24.16137 
L 194.209183 24.153139 
L 200.251524 24.151165 
L 206.295729 24.143984 
L 212.353094 24.134025 
L 218.422577 24.12082 
L 224.474418 24.107755 
L 230.520908 24.090208 
L 236.579452 24.066196 
L 242.638101 24.043514 
L 248.695153 24.02201 
L 254.754048 24.024822 
L 260.809471 24.064866 
L 266.860281 24.147153 
L 272.923718 24.235748 
L 278.972775 24.298288 
L 285.030322 24.339055 
L 291.091103 24.360777 
L 297.144223 24.376101 
L 303.199373 24.380142 
L 309.259369 24.386541 
L 315.329487 24.388056 
L 321.371828 24.388898 
L 327.416033 24.392771 
L 333.473398 24.388562 
L 339.542881 24.389404 
L 345.594723 24.387888 
L 351.641212 24.386036 
L 357.699756 24.385867 
L 363.758405 24.387215 
L 369.815458 24.38772 
L 375.874353 24.383847 
L 381.929776 24.382668 
L 387.980585 24.381994 
L 394.044022 24.38351 
L 400.093079 24.384352 
L 406.150627 24.381153 
L 412.211407 24.380479 
L 418.264527 24.38351 
" clip-path="url(#p91f12eecfb)" style="fill: none; stroke: #c371d2"/>
   </g>
   <g id="line2d_17">
    <path d="M 54.903614 24.209563 
L 60.958764 24.218084 
L 67.018761 24.222512 
L 73.088878 24.2213 
L 79.13122 24.222091 
L 85.175424 24.223472 
L 91.232789 24.228305 
L 97.302272 24.231016 
L 103.354114 24.239772 
L 109.400603 24.233037 
L 115.459147 24.134254 
L 121.517796 24.128795 
L 127.574849 24.112099 
L 133.633744 24.096051 
L 139.689167 24.084449 
L 145.739976 24.057204 
L 151.803413 24.026658 
L 157.852471 23.988888 
L 163.910018 23.93694 
L 169.970799 23.87935 
L 176.023918 23.802733 
L 182.079068 23.702541 
L 188.139065 23.578774 
L 194.209183 23.426381 
L 200.251524 23.23829 
L 206.295729 22.993114 
L 212.353094 22.689675 
L 218.422577 22.306251 
L 224.474418 21.839811 
L 230.520908 21.332957 
L 236.579452 20.659397 
L 242.638101 19.921849 
L 248.695153 19.275232 
L 254.754048 18.997388 
L 260.809471 19.676 
L 266.860281 21.577123 
L 272.923718 24.575811 
L 278.972775 28.146015 
L 285.030322 32.069502 
L 291.091103 35.981201 
L 297.144223 39.876061 
L 303.199373 43.737243 
L 309.259369 47.458661 
L 315.329487 51.16324 
L 321.371828 54.766786 
L 327.416033 58.353492 
L 333.473398 61.856003 
L 339.542881 65.358515 
L 345.594723 68.827348 
L 351.641212 72.262503 
L 357.699756 75.663981 
L 363.758405 79.065458 
L 369.815458 82.517452 
L 375.874353 85.885252 
L 381.929776 89.253051 
L 387.980585 92.587173 
L 394.044022 95.971811 
L 400.093079 99.272254 
L 406.150627 102.572698 
L 412.211407 105.805785 
L 418.264527 109.139906 
" clip-path="url(#p91f12eecfb)" style="fill: none; stroke: #ac8e18"/>
   </g>
   <g id="legend_1">
    <g id="patch_5">
     <path d="M 381.480354 74.347146 
L 425.165354 74.347146 
L 425.165354 6.834646 
L 381.480354 6.834646 
L 381.480354 74.347146 
z
" style="fill: none; opacity: 0"/>
    </g>
    <g id="line2d_18">
     <path d="M 387.880354 16.513396 
L 395.880354 16.513396 
L 403.880354 16.513396 
" style="fill: none; stroke: #009afa; stroke-linejoin: miter"/>
    </g>
    <g id="text_8">
     <!-- ϕ₅ -->
     <g transform="translate(410.280354 19.313396) scale(0.08 -0.08)">
      <defs>
       <path id="DejaVuSans-3d5" d="M 2388 4863 
L 2388 3572 
Q 3009 3572 3425 3094 
Q 3853 2606 3853 1747 
Q 3853 888 3425 400 
Q 3009 -78 2388 -78 
L 2388 -1331 
L 1816 -1331 
L 1816 -78 
Q 1194 -78 775 400 
Q 350 888 350 1747 
Q 350 2606 775 3094 
Q 1194 3572 1816 3572 
L 1816 4863 
L 2388 4863 
z
M 2388 434 
Q 2741 434 2981 756 
Q 3244 1116 3247 1747 
Q 3250 2372 2981 2738 
Q 2741 3059 2388 3059 
L 2388 434 
z
M 1816 434 
L 1816 3059 
Q 1463 3059 1225 2738 
Q 953 2372 956 1747 
Q 959 1116 1225 756 
Q 1463 434 1816 434 
z
" transform="scale(0.015625)"/>
       <path id="DejaVuSans-2085" d="M 444 2609 
L 2038 2609 
L 2038 2312 
L 816 2312 
L 816 1675 
Q 903 1703 994 1715 
Q 1081 1728 1169 1728 
Q 1672 1728 1966 1487 
Q 2259 1250 2259 840 
Q 2259 418 1956 184 
Q 1656 -47 1106 -47 
Q 919 -47 722 -19 
Q 525 9 319 65 
L 319 418 
Q 497 334 691 290 
Q 884 250 1100 250 
Q 1447 250 1650 409 
Q 1853 568 1853 840 
Q 1853 1112 1650 1271 
Q 1447 1431 1100 1431 
Q 938 1431 775 1399 
Q 613 1368 444 1303 
L 444 2609 
z
" transform="scale(0.015625)"/>
      </defs>
      <use xlink:href="#DejaVuSans-3d5"/>
      <use xlink:href="#DejaVuSans-2085" x="65.966797"/>
     </g>
    </g>
    <g id="line2d_19">
     <path d="M 387.880354 28.255896 
L 395.880354 28.255896 
L 403.880354 28.255896 
" style="fill: none; stroke: #e36f47; stroke-linejoin: miter"/>
    </g>
    <g id="text_9">
     <!-- ϕ₃ -->
     <g transform="translate(410.280354 31.055896) scale(0.08 -0.08)">
      <defs>
       <path id="DejaVuSans-2083" d="M 1638 1412 
Q 1925 1356 2083 1185 
Q 2241 1015 2241 759 
Q 2241 371 1944 162 
Q 1647 -47 1094 -47 
Q 916 -47 720 -14 
Q 525 18 306 81 
L 306 459 
Q 469 375 655 334 
Q 841 293 1050 293 
Q 1391 293 1578 416 
Q 1766 540 1766 759 
Q 1766 990 1592 1109 
Q 1419 1228 1081 1228 
L 813 1228 
L 813 1565 
L 1106 1565 
Q 1400 1565 1551 1663 
Q 1703 1762 1703 1950 
Q 1703 2131 1547 2226 
Q 1391 2321 1094 2321 
Q 969 2321 809 2293 
Q 650 2265 397 2193 
L 397 2553 
Q 625 2606 825 2634 
Q 1025 2662 1197 2662 
Q 1647 2662 1911 2477 
Q 2175 2293 2175 1984 
Q 2175 1768 2034 1618 
Q 1894 1468 1638 1412 
z
" transform="scale(0.015625)"/>
      </defs>
      <use xlink:href="#DejaVuSans-3d5"/>
      <use xlink:href="#DejaVuSans-2083" x="65.966797"/>
     </g>
    </g>
    <g id="line2d_20">
     <path d="M 387.880354 39.998396 
L 395.880354 39.998396 
L 403.880354 39.998396 
" style="fill: none; stroke: #3ea44e; stroke-linejoin: miter"/>
    </g>
    <g id="text_10">
     <!-- ϕ₂ -->
     <g transform="translate(410.280354 42.798396) scale(0.08 -0.08)">
      <defs>
       <path id="DejaVuSans-2082" d="M 838 356 
L 2163 356 
L 2163 0 
L 294 0 
L 294 343 
Q 400 440 597 615 
Q 1672 1568 1672 1862 
Q 1672 2068 1509 2194 
Q 1347 2321 1081 2321 
Q 919 2321 728 2266 
Q 538 2212 313 2103 
L 313 2487 
Q 553 2575 761 2618 
Q 969 2662 1147 2662 
Q 1600 2662 1872 2456 
Q 2144 2250 2144 1912 
Q 2144 1478 1109 590 
Q 934 440 838 356 
z
" transform="scale(0.015625)"/>
      </defs>
      <use xlink:href="#DejaVuSans-3d5"/>
      <use xlink:href="#DejaVuSans-2082" x="65.966797"/>
     </g>
    </g>
    <g id="line2d_21">
     <path d="M 387.880354 51.740896 
L 395.880354 51.740896 
L 403.880354 51.740896 
" style="fill: none; stroke: #c371d2; stroke-linejoin: miter"/>
    </g>
    <g id="text_11">
     <!-- ϕ₁ -->
     <g transform="translate(410.280354 54.540896) scale(0.08 -0.08)">
      <defs>
       <path id="DejaVuSans-2081" d="M 488 343 
L 1125 343 
L 1125 2253 
L 428 2125 
L 428 2487 
L 1147 2609 
L 1575 2609 
L 1575 343 
L 2216 343 
L 2216 0 
L 488 0 
L 488 343 
z
" transform="scale(0.015625)"/>
      </defs>
      <use xlink:href="#DejaVuSans-3d5"/>
      <use xlink:href="#DejaVuSans-2081" x="65.966797"/>
     </g>
    </g>
    <g id="line2d_22">
     <path d="M 387.880354 63.483396 
L 395.880354 63.483396 
L 403.880354 63.483396 
" style="fill: none; stroke: #ac8e18; stroke-linejoin: miter"/>
    </g>
    <g id="text_12">
     <!-- ϕ₄ -->
     <g transform="translate(410.280354 66.283396) scale(0.08 -0.08)">
      <defs>
       <path id="DejaVuSans-2084" d="M 1491 2231 
L 525 921 
L 1491 921 
L 1491 2231 
z
M 1422 2609 
L 1941 2609 
L 1941 921 
L 2363 921 
L 2363 581 
L 1941 581 
L 1941 0 
L 1491 0 
L 1491 581 
L 197 581 
L 197 959 
L 1422 2609 
z
" transform="scale(0.015625)"/>
      </defs>
      <use xlink:href="#DejaVuSans-3d5"/>
      <use xlink:href="#DejaVuSans-2084" x="65.966797"/>
     </g>
    </g>
   </g>
  </g>
  <g id="axes_2">
   <g id="patch_6">
    <path d="M 44.002787 256.929354 
L 429.165354 256.929354 
L 429.165354 146.834646 
L 44.002787 146.834646 
L 44.002787 256.929354 
z
" style="fill: none"/>
   </g>
   <g id="matplotlib.axis_3">
    <g id="xtick_5">
     <g id="line2d_23">
      <path d="M 176.023918 256.929354 
L 176.023918 146.834646 
" clip-path="url(#p28aeeecea0)" style="fill: none; stroke: #000000; stroke-opacity: 0.1; stroke-width: 0.5; stroke-linecap: square"/>
     </g>
     <g id="line2d_24">
      <g>
       <use xlink:href="#m2a2f01026b" x="176.023918" y="256.929354" style="stroke: #000000; stroke-width: 0.5"/>
      </g>
     </g>
     <g id="text_13">
      <!-- $10^{2}$ -->
      <g transform="translate(168.983918 266.508104) scale(0.08 -0.08)">
       <use xlink:href="#DejaVuSans-31" transform="translate(0 0.765625)"/>
       <use xlink:href="#DejaVuSans-30" transform="translate(63.623047 0.765625)"/>
       <use xlink:href="#DejaVuSans-32" transform="translate(128.203125 39.046875) scale(0.7)"/>
      </g>
     </g>
    </g>
    <g id="xtick_6">
     <g id="line2d_25">
      <path d="M 418.264527 256.929354 
L 418.264527 146.834646 
" clip-path="url(#p28aeeecea0)" style="fill: none; stroke: #000000; stroke-opacity: 0.1; stroke-width: 0.5; stroke-linecap: square"/>
     </g>
     <g id="line2d_26">
      <g>
       <use xlink:href="#m2a2f01026b" x="418.264527" y="256.929354" style="stroke: #000000; stroke-width: 0.5"/>
      </g>
     </g>
     <g id="text_14">
      <!-- $10^{4}$ -->
      <g transform="translate(411.224527 266.508104) scale(0.08 -0.08)">
       <use xlink:href="#DejaVuSans-31" transform="translate(0 0.684375)"/>
       <use xlink:href="#DejaVuSans-30" transform="translate(63.623047 0.684375)"/>
       <use xlink:href="#DejaVuSans-34" transform="translate(128.203125 38.965625) scale(0.7)"/>
      </g>
     </g>
    </g>
    <g id="xtick_7">
     <g id="line2d_27">
      <g>
       <use xlink:href="#m72fa0c5577" x="54.903614" y="256.929354" style="stroke: #000000; stroke-width: 0.6"/>
      </g>
     </g>
    </g>
    <g id="xtick_8">
     <g id="line2d_28">
      <g>
       <use xlink:href="#m72fa0c5577" x="297.144223" y="256.929354" style="stroke: #000000; stroke-width: 0.6"/>
      </g>
     </g>
    </g>
    <g id="text_15">
     <!-- f [Hz] -->
     <g transform="translate(221.585399 280.530136) scale(0.11 -0.11)">
      <use xlink:href="#DejaVuSans-66"/>
      <use xlink:href="#DejaVuSans-20" x="35.205078"/>
      <use xlink:href="#DejaVuSans-5b" x="66.992188"/>
      <use xlink:href="#DejaVuSans-48" x="106.005859"/>
      <use xlink:href="#DejaVuSans-7a" x="181.201172"/>
      <use xlink:href="#DejaVuSans-5d" x="233.691406"/>
     </g>
    </g>
   </g>
   <g id="matplotlib.axis_4">
    <g id="ytick_4">
     <g id="line2d_29">
      <path d="M 44.002787 237.199039 
L 429.165354 237.199039 
" clip-path="url(#p28aeeecea0)" style="fill: none; stroke: #000000; stroke-opacity: 0.1; stroke-width: 0.5; stroke-linecap: square"/>
     </g>
     <g id="line2d_30">
      <g>
       <use xlink:href="#md0e2a12449" x="44.002787" y="237.199039" style="stroke: #000000; stroke-width: 0.5"/>
      </g>
     </g>
     <g id="text_16">
      <!-- $-150$ -->
      <g transform="translate(18.502787 240.238414) scale(0.08 -0.08)">
       <defs>
        <path id="DejaVuSans-35" d="M 691 4666 
L 3169 4666 
L 3169 4134 
L 1269 4134 
L 1269 2991 
Q 1406 3038 1543 3061 
Q 1681 3084 1819 3084 
Q 2600 3084 3056 2656 
Q 3513 2228 3513 1497 
Q 3513 744 3044 326 
Q 2575 -91 1722 -91 
Q 1428 -91 1123 -41 
Q 819 9 494 109 
L 494 744 
Q 775 591 1075 516 
Q 1375 441 1709 441 
Q 2250 441 2565 725 
Q 2881 1009 2881 1497 
Q 2881 1984 2565 2268 
Q 2250 2553 1709 2553 
Q 1456 2553 1204 2497 
Q 953 2441 691 2322 
L 691 4666 
z
" transform="scale(0.015625)"/>
       </defs>
       <use xlink:href="#DejaVuSans-2212" transform="translate(0 0.78125)"/>
       <use xlink:href="#DejaVuSans-31" transform="translate(83.789062 0.78125)"/>
       <use xlink:href="#DejaVuSans-35" transform="translate(147.412109 0.78125)"/>
       <use xlink:href="#DejaVuSans-30" transform="translate(211.035156 0.78125)"/>
      </g>
     </g>
    </g>
    <g id="ytick_5">
     <g id="line2d_31">
      <path d="M 44.002787 208.749676 
L 429.165354 208.749676 
" clip-path="url(#p28aeeecea0)" style="fill: none; stroke: #000000; stroke-opacity: 0.1; stroke-width: 0.5; stroke-linecap: square"/>
     </g>
     <g id="line2d_32">
      <g>
       <use xlink:href="#md0e2a12449" x="44.002787" y="208.749676" style="stroke: #000000; stroke-width: 0.5"/>
      </g>
     </g>
     <g id="text_17">
      <!-- $-100$ -->
      <g transform="translate(18.502787 211.789051) scale(0.08 -0.08)">
       <use xlink:href="#DejaVuSans-2212" transform="translate(0 0.78125)"/>
       <use xlink:href="#DejaVuSans-31" transform="translate(83.789062 0.78125)"/>
       <use xlink:href="#DejaVuSans-30" transform="translate(147.412109 0.78125)"/>
       <use xlink:href="#DejaVuSans-30" transform="translate(211.035156 0.78125)"/>
      </g>
     </g>
    </g>
    <g id="ytick_6">
     <g id="line2d_33">
      <path d="M 44.002787 180.300314 
L 429.165354 180.300314 
" clip-path="url(#p28aeeecea0)" style="fill: none; stroke: #000000; stroke-opacity: 0.1; stroke-width: 0.5; stroke-linecap: square"/>
     </g>
     <g id="line2d_34">
      <g>
       <use xlink:href="#md0e2a12449" x="44.002787" y="180.300314" style="stroke: #000000; stroke-width: 0.5"/>
      </g>
     </g>
     <g id="text_18">
      <!-- $-50$ -->
      <g transform="translate(23.542787 183.339689) scale(0.08 -0.08)">
       <use xlink:href="#DejaVuSans-2212" transform="translate(0 0.78125)"/>
       <use xlink:href="#DejaVuSans-35" transform="translate(83.789062 0.78125)"/>
       <use xlink:href="#DejaVuSans-30" transform="translate(147.412109 0.78125)"/>
      </g>
     </g>
    </g>
    <g id="ytick_7">
     <g id="line2d_35">
      <path d="M 44.002787 151.850951 
L 429.165354 151.850951 
" clip-path="url(#p28aeeecea0)" style="fill: none; stroke: #000000; stroke-opacity: 0.1; stroke-width: 0.5; stroke-linecap: square"/>
     </g>
     <g id="line2d_36">
      <g>
       <use xlink:href="#md0e2a12449" x="44.002787" y="151.850951" style="stroke: #000000; stroke-width: 0.5"/>
      </g>
     </g>
     <g id="text_19">
      <!-- $0$ -->
      <g transform="translate(35.382787 154.890326) scale(0.08 -0.08)">
       <use xlink:href="#DejaVuSans-30" transform="translate(0 0.78125)"/>
      </g>
     </g>
    </g>
    <g id="text_20">
     <!-- ϕ [°] -->
     <g transform="translate(12.21513 214.299969) rotate(-90) scale(0.11 -0.11)">
      <defs>
       <path id="DejaVuSans-b0" d="M 1600 4347 
Q 1350 4347 1178 4173 
Q 1006 4000 1006 3750 
Q 1006 3503 1178 3333 
Q 1350 3163 1600 3163 
Q 1850 3163 2022 3333 
Q 2194 3503 2194 3750 
Q 2194 3997 2020 4172 
Q 1847 4347 1600 4347 
z
M 1600 4750 
Q 1800 4750 1984 4673 
Q 2169 4597 2303 4453 
Q 2447 4313 2519 4134 
Q 2591 3956 2591 3750 
Q 2591 3338 2302 3052 
Q 2013 2766 1594 2766 
Q 1172 2766 890 3047 
Q 609 3328 609 3750 
Q 609 4169 896 4459 
Q 1184 4750 1600 4750 
z
" transform="scale(0.015625)"/>
      </defs>
      <use xlink:href="#DejaVuSans-3d5"/>
      <use xlink:href="#DejaVuSans-20" x="65.966797"/>
      <use xlink:href="#DejaVuSans-5b" x="97.753906"/>
      <use xlink:href="#DejaVuSans-b0" x="136.767578"/>
      <use xlink:href="#DejaVuSans-5d" x="186.767578"/>
     </g>
    </g>
   </g>
   <g id="line2d_37">
    <path d="M 54.903614 152.286113 
L 60.958764 152.358033 
L 67.018761 152.411517 
L 73.088878 152.48082 
L 79.13122 152.554788 
L 85.175424 152.627619 
L 91.232789 152.720364 
L 97.302272 152.823919 
L 103.354114 152.933734 
L 109.400603 153.066308 
L 115.459147 153.3912 
L 121.517796 153.576689 
L 127.574849 153.798025 
L 133.633744 154.041552 
L 139.689167 154.307269 
L 145.739976 154.607125 
L 151.803413 154.949087 
L 157.852471 155.344533 
L 163.910018 155.782653 
L 169.970799 156.282793 
L 176.023918 156.842676 
L 182.079068 157.49246 
L 188.139065 158.252058 
L 194.209183 159.116918 
L 200.251524 160.124026 
L 206.295729 161.307519 
L 212.353094 162.741367 
L 218.422577 164.431259 
L 224.474418 166.553582 
L 230.520908 169.199372 
L 236.579452 172.601916 
L 242.638101 177.062776 
L 248.695153 183.014383 
L 254.754048 190.610363 
L 260.809471 199.685709 
L 266.860281 209.03417 
L 272.923718 217.398282 
L 278.972775 223.998534 
L 285.030322 229.403913 
L 291.091103 233.386824 
L 297.144223 236.68695 
L 303.199373 239.190494 
L 309.259369 241.295747 
L 315.329487 242.94581 
L 321.371828 244.425177 
L 327.416033 245.563151 
L 333.473398 246.644227 
L 339.542881 247.440809 
L 345.594723 248.237391 
L 351.641212 248.920176 
L 357.699756 249.602961 
L 363.758405 250.001252 
L 369.815458 250.456442 
L 375.874353 250.740935 
L 381.929776 251.196125 
L 387.980585 251.594416 
L 394.044022 251.708214 
L 400.093079 251.87891 
L 406.150627 252.106505 
L 412.211407 252.049606 
L 418.264527 252.163403 
" clip-path="url(#p28aeeecea0)" style="fill: none; stroke: #009afa"/>
   </g>
   <g id="line2d_38">
    <path d="M 54.903614 151.849419 
L 60.958764 151.848598 
L 67.018761 151.838667 
L 73.088878 151.848568 
L 79.13122 151.841273 
L 85.175424 151.845924 
L 91.232789 151.840652 
L 97.302272 151.83725 
L 103.354114 151.831833 
L 109.400603 151.843583 
L 115.459147 151.850278 
L 121.517796 151.847712 
L 127.574849 151.841876 
L 133.633744 151.841068 
L 139.689167 151.839788 
L 145.739976 151.836226 
L 151.803413 151.842223 
L 157.852471 151.832613 
L 163.910018 151.826718 
L 169.970799 151.830046 
L 176.023918 151.830348 
L 182.079068 151.827048 
L 188.139065 151.818194 
L 194.209183 151.821347 
L 200.251524 151.81585 
L 206.295729 151.816607 
L 212.353094 151.815901 
L 218.422577 151.823315 
L 224.474418 151.841034 
L 230.520908 151.854788 
L 236.579452 151.897654 
L 242.638101 151.962757 
L 248.695153 152.077636 
L 254.754048 152.237464 
L 260.809471 152.420507 
L 266.860281 152.52008 
L 272.923718 152.521218 
L 278.972775 152.456354 
L 285.030322 152.369242 
L 291.091103 152.291347 
L 297.144223 152.221703 
L 303.199373 152.170039 
L 309.259369 152.119115 
L 315.329487 152.086739 
L 321.371828 152.050609 
L 327.416033 152.031206 
L 333.473398 152.010609 
L 339.542881 151.994051 
L 345.594723 151.985972 
L 351.641212 151.968561 
L 357.699756 151.956555 
L 363.758405 151.952117 
L 369.815458 151.947565 
L 375.874353 151.944834 
L 381.929776 151.941306 
L 387.980585 151.941989 
L 394.044022 151.94637 
L 400.093079 151.951377 
L 406.150627 151.953881 
L 412.211407 151.964293 
L 418.264527 151.970609 
" clip-path="url(#p28aeeecea0)" style="fill: none; stroke: #e36f47"/>
   </g>
   <g id="patch_7">
    <path d="M 44.002787 256.929354 
L 44.002787 146.834646 
" style="fill: none; stroke: #000000; stroke-linejoin: miter; stroke-linecap: square"/>
   </g>
   <g id="patch_8">
    <path d="M 44.002787 256.929354 
L 429.165354 256.929354 
" style="fill: none; stroke: #000000; stroke-linejoin: miter; stroke-linecap: square"/>
   </g>
   <g id="line2d_39">
    <path d="M 54.903614 151.618634 
L 60.958764 151.603954 
L 67.018761 151.575561 
L 73.088878 151.559743 
L 79.13122 151.535561 
L 85.175424 151.506828 
L 91.232789 151.479858 
L 97.302272 151.44111 
L 103.354114 151.409303 
L 109.400603 151.358322 
L 115.459147 151.285036 
L 121.517796 151.219944 
L 127.574849 151.145407 
L 133.633744 151.061766 
L 139.689167 150.971297 
L 145.739976 150.877983 
L 151.803413 150.765892 
L 157.852471 150.660061 
L 163.910018 150.537728 
L 169.970799 150.416534 
L 176.023918 150.282253 
L 182.079068 150.169594 
L 188.139065 150.056365 
L 194.209183 149.982397 
L 200.251524 149.950534 
L 206.295729 150.001174 
L 212.353094 150.173008 
L 218.422577 150.546263 
L 224.474418 151.198892 
L 230.520908 152.281049 
L 236.579452 154.040983 
L 242.638101 156.772122 
L 248.695153 160.897848 
L 254.754048 166.64462 
L 260.809471 173.77972 
L 266.860281 181.165174 
L 272.923718 187.640249 
L 278.972775 192.635957 
L 285.030322 196.260406 
L 291.091103 198.712741 
L 297.144223 200.448152 
L 303.199373 201.557677 
L 309.259369 202.3315 
L 315.329487 202.79238 
L 321.371828 203.179291 
L 327.416033 203.304468 
L 333.473398 203.418266 
L 339.542881 203.423955 
L 345.594723 203.463785 
L 351.641212 203.458095 
L 357.699756 203.441025 
L 363.758405 203.378436 
L 369.815458 203.315848 
L 375.874353 203.24188 
L 381.929776 203.258949 
L 387.980585 203.258949 
L 394.044022 203.173601 
L 400.093079 203.122392 
L 406.150627 203.105323 
L 412.211407 203.037044 
L 418.264527 203.059804 
" clip-path="url(#p28aeeecea0)" style="fill: none; stroke: #3ea44e"/>
   </g>
   <g id="line2d_40">
    <path d="M 54.903614 152.202642 
L 60.958764 152.242926 
L 67.018761 152.307051 
L 73.088878 152.366624 
L 79.13122 152.444405 
L 85.175424 152.530891 
L 91.232789 152.620791 
L 97.302272 152.728329 
L 103.354114 152.838713 
L 109.400603 152.979822 
L 115.459147 153.380958 
L 121.517796 153.579534 
L 127.574849 153.784939 
L 133.633744 154.019361 
L 139.689167 154.279958 
L 145.739976 154.588918 
L 151.803413 154.933155 
L 157.852471 155.310394 
L 163.910018 155.754204 
L 169.970799 156.246378 
L 176.023918 156.815934 
L 182.079068 157.450355 
L 188.139065 158.206539 
L 194.209183 159.071399 
L 200.251524 160.067127 
L 206.295729 161.25062 
L 212.353094 162.678778 
L 218.422577 164.362981 
L 224.474418 166.462544 
L 230.520908 169.091265 
L 236.579452 172.471049 
L 242.638101 176.8807 
L 248.695153 182.764028 
L 254.754048 190.229141 
L 260.809471 199.22483 
L 266.860281 208.505012 
L 272.923718 216.886194 
L 278.972775 223.657142 
L 285.030322 229.11942 
L 291.091103 233.10233 
L 297.144223 236.459355 
L 303.199373 238.962899 
L 309.259369 241.068152 
L 315.329487 242.718215 
L 321.371828 244.254481 
L 327.416033 245.392455 
L 333.473398 246.473531 
L 339.542881 247.270113 
L 345.594723 248.123594 
L 351.641212 248.74948 
L 357.699756 249.432265 
L 363.758405 249.830556 
L 369.815458 250.285745 
L 375.874353 250.570239 
L 381.929776 251.025429 
L 387.980585 251.309922 
L 394.044022 251.594416 
L 400.093079 251.594416 
L 406.150627 251.822011 
L 412.211407 251.708214 
L 418.264527 252.049606 
" clip-path="url(#p28aeeecea0)" style="fill: none; stroke: #c371d2"/>
   </g>
   <g id="line2d_41">
    <path d="M 54.903614 152.229043 
L 60.958764 152.347848 
L 67.018761 152.402414 
L 73.088878 152.473423 
L 79.13122 152.550236 
L 85.175424 152.627619 
L 91.232789 152.716381 
L 97.302272 152.81254 
L 103.354114 152.924061 
L 109.400603 153.05948 
L 115.459147 153.355353 
L 121.517796 153.544257 
L 127.574849 153.753644 
L 133.633744 153.980101 
L 139.689167 154.240129 
L 145.739976 154.530881 
L 151.803413 154.86829 
L 157.852471 155.248943 
L 163.910018 155.674545 
L 169.970799 156.167857 
L 176.023918 156.719775 
L 182.079068 157.347368 
L 188.139065 158.087051 
L 194.209183 158.946222 
L 200.251524 159.93057 
L 206.295729 161.096994 
L 212.353094 162.513772 
L 218.422577 164.175215 
L 224.474418 166.280468 
L 230.520908 168.909189 
L 236.579452 172.311733 
L 242.638101 176.795352 
L 248.695153 182.837997 
L 254.754048 190.587603 
L 260.809471 199.913304 
L 266.860281 209.432461 
L 272.923718 217.796573 
L 278.972775 224.567522 
L 285.030322 229.916002 
L 291.091103 233.785115 
L 297.144223 237.028342 
L 303.199373 239.474988 
L 309.259369 241.523342 
L 315.329487 243.173405 
L 321.371828 244.652772 
L 327.416033 245.733847 
L 333.473398 246.814923 
L 339.542881 247.611505 
L 345.594723 248.351189 
L 351.641212 248.977075 
L 357.699756 249.659859 
L 363.758405 250.115049 
L 369.815458 250.627138 
L 375.874353 250.911631 
L 381.929776 251.366821 
L 387.980585 251.87891 
L 394.044022 252.106505 
L 400.093079 252.447897 
L 406.150627 252.846188 
L 412.211407 253.18758 
L 418.264527 253.813466 
" clip-path="url(#p28aeeecea0)" style="fill: none; stroke: #ac8e18"/>
   </g>
   <g id="legend_2">
    <g id="patch_9">
     <path d="M 381.480354 218.347146 
L 425.165354 218.347146 
L 425.165354 150.834646 
L 381.480354 150.834646 
L 381.480354 218.347146 
z
" style="fill: none; opacity: 0"/>
    </g>
    <g id="line2d_42">
     <path d="M 387.880354 160.513396 
L 395.880354 160.513396 
L 403.880354 160.513396 
" style="fill: none; stroke: #009afa; stroke-linejoin: miter"/>
    </g>
    <g id="text_21">
     <!-- ϕ₅ -->
     <g transform="translate(410.280354 163.313396) scale(0.08 -0.08)">
      <use xlink:href="#DejaVuSans-3d5"/>
      <use xlink:href="#DejaVuSans-2085" x="65.966797"/>
     </g>
    </g>
    <g id="line2d_43">
     <path d="M 387.880354 172.255896 
L 395.880354 172.255896 
L 403.880354 172.255896 
" style="fill: none; stroke: #e36f47; stroke-linejoin: miter"/>
    </g>
    <g id="text_22">
     <!-- ϕ₁ -->
     <g transform="translate(410.280354 175.055896) scale(0.08 -0.08)">
      <use xlink:href="#DejaVuSans-3d5"/>
      <use xlink:href="#DejaVuSans-2081" x="65.966797"/>
     </g>
    </g>
    <g id="line2d_44">
     <path d="M 387.880354 183.998396 
L 395.880354 183.998396 
L 403.880354 183.998396 
" style="fill: none; stroke: #3ea44e; stroke-linejoin: miter"/>
    </g>
    <g id="text_23">
     <!-- ϕ₂ -->
     <g transform="translate(410.280354 186.798396) scale(0.08 -0.08)">
      <use xlink:href="#DejaVuSans-3d5"/>
      <use xlink:href="#DejaVuSans-2082" x="65.966797"/>
     </g>
    </g>
    <g id="line2d_45">
     <path d="M 387.880354 195.740896 
L 395.880354 195.740896 
L 403.880354 195.740896 
" style="fill: none; stroke: #c371d2; stroke-linejoin: miter"/>
    </g>
    <g id="text_24">
     <!-- ϕ₃ -->
     <g transform="translate(410.280354 198.540896) scale(0.08 -0.08)">
      <use xlink:href="#DejaVuSans-3d5"/>
      <use xlink:href="#DejaVuSans-2083" x="65.966797"/>
     </g>
    </g>
    <g id="line2d_46">
     <path d="M 387.880354 207.483396 
L 395.880354 207.483396 
L 403.880354 207.483396 
" style="fill: none; stroke: #ac8e18; stroke-linejoin: miter"/>
    </g>
    <g id="text_25">
     <!-- ϕ₄ -->
     <g transform="translate(410.280354 210.283396) scale(0.08 -0.08)">
      <use xlink:href="#DejaVuSans-3d5"/>
      <use xlink:href="#DejaVuSans-2084" x="65.966797"/>
     </g>
    </g>
   </g>
  </g>
 </g>
 <defs>
  <clipPath id="p91f12eecfb">
   <rect x="44.002787" y="2.834646" width="385.162568" height="110.094709"/>
  </clipPath>
  <clipPath id="p28aeeecea0">
   <rect x="44.002787" y="146.834646" width="385.162568" height="110.094709"/>
  </clipPath>
 </defs>
</svg>
