<?xml version="1.0" encoding="utf-8"?>
<svg xmlns="http://www.w3.org/2000/svg" xmlns:xlink="http://www.w3.org/1999/xlink" width="600" height="400" viewBox="0 0 2400 1600">
<defs>
  <clipPath id="clip810">
    <rect x="0" y="0" width="2400" height="1600"/>
  </clipPath>
</defs>
<defs>
  <clipPath id="clip811">
    <rect x="480" y="0" width="1681" height="1600"/>
  </clipPath>
</defs>
<defs>
  <clipPath id="clip812">
    <rect x="272" y="47" width="2081" height="565"/>
  </clipPath>
</defs>
<polyline clip-path="url(#clip812)" style="stroke:#000000; stroke-linecap:round; stroke-linejoin:round; stroke-width:2; stroke-opacity:0.1; fill:none" points="985.41,610.897 985.41,47.2441 "/>
<polyline clip-path="url(#clip812)" style="stroke:#000000; stroke-linecap:round; stroke-linejoin:round; stroke-width:2; stroke-opacity:0.1; fill:none" points="2293.87,610.897 2293.87,47.2441 "/>
<polyline clip-path="url(#clip810)" style="stroke:#000000; stroke-linecap:round; stroke-linejoin:round; stroke-width:4; stroke-opacity:1; fill:none" points="272.297,610.897 2352.76,610.897 "/>
<polyline clip-path="url(#clip810)" style="stroke:#000000; stroke-linecap:round; stroke-linejoin:round; stroke-width:4; stroke-opacity:1; fill:none" points="985.41,610.897 985.41,591.999 "/>
<polyline clip-path="url(#clip810)" style="stroke:#000000; stroke-linecap:round; stroke-linejoin:round; stroke-width:4; stroke-opacity:1; fill:none" points="2293.87,610.897 2293.87,591.999 "/>
<path clip-path="url(#clip810)" d="M951.183 685.021 L958.822 685.021 L958.822 658.656 L950.511 660.323 L950.511 656.063 L958.775 654.397 L963.451 654.397 L963.451 685.021 L971.09 685.021 L971.09 688.957 L951.183 688.957 L951.183 685.021 Z" fill="#000000" fill-rule="nonzero" fill-opacity="1" /><path clip-path="url(#clip810)" d="M990.534 657.475 Q986.923 657.475 985.095 661.04 Q983.289 664.582 983.289 671.711 Q983.289 678.818 985.095 682.383 Q986.923 685.924 990.534 685.924 Q994.169 685.924 995.974 682.383 Q997.803 678.818 997.803 671.711 Q997.803 664.582 995.974 661.04 Q994.169 657.475 990.534 657.475 M990.534 653.772 Q996.345 653.772 999.4 658.378 Q1002.48 662.961 1002.48 671.711 Q1002.48 680.438 999.4 685.045 Q996.345 689.628 990.534 689.628 Q984.724 689.628 981.646 685.045 Q978.59 680.438 978.59 671.711 Q978.59 662.961 981.646 658.378 Q984.724 653.772 990.534 653.772 Z" fill="#000000" fill-rule="nonzero" fill-opacity="1" /><path clip-path="url(#clip810)" d="M1007.05 658.349 L1020.31 658.349 L1020.31 661.546 L1002.48 661.546 L1002.48 658.349 Q1004.64 656.111 1008.37 652.349 Q1012.11 648.569 1013.07 647.478 Q1014.89 645.428 1015.61 644.017 Q1016.34 642.588 1016.34 641.215 Q1016.34 638.977 1014.76 637.566 Q1013.2 636.156 1010.68 636.156 Q1008.89 636.156 1006.9 636.776 Q1004.92 637.397 1002.67 638.657 L1002.67 634.82 Q1004.96 633.899 1006.95 633.429 Q1008.95 632.958 1010.6 632.958 Q1014.97 632.958 1017.56 635.14 Q1020.16 637.322 1020.16 640.971 Q1020.16 642.701 1019.5 644.262 Q1018.86 645.804 1017.15 647.911 Q1016.68 648.456 1014.16 651.07 Q1011.64 653.666 1007.05 658.349 Z" fill="#000000" fill-rule="nonzero" fill-opacity="1" /><path clip-path="url(#clip810)" d="M2258.33 685.021 L2265.97 685.021 L2265.97 658.656 L2257.66 660.323 L2257.66 656.063 L2265.92 654.397 L2270.6 654.397 L2270.6 685.021 L2278.24 685.021 L2278.24 688.957 L2258.33 688.957 L2258.33 685.021 Z" fill="#000000" fill-rule="nonzero" fill-opacity="1" /><path clip-path="url(#clip810)" d="M2297.68 657.475 Q2294.07 657.475 2292.24 661.04 Q2290.44 664.582 2290.44 671.711 Q2290.44 678.818 2292.24 682.383 Q2294.07 685.924 2297.68 685.924 Q2301.32 685.924 2303.12 682.383 Q2304.95 678.818 2304.95 671.711 Q2304.95 664.582 2303.12 661.04 Q2301.32 657.475 2297.68 657.475 M2297.68 653.772 Q2303.49 653.772 2306.55 658.378 Q2309.63 662.961 2309.63 671.711 Q2309.63 680.438 2306.55 685.045 Q2303.49 689.628 2297.68 689.628 Q2291.87 689.628 2288.79 685.045 Q2285.74 680.438 2285.74 671.711 Q2285.74 662.961 2288.79 658.378 Q2291.87 653.772 2297.68 653.772 Z" fill="#000000" fill-rule="nonzero" fill-opacity="1" /><path clip-path="url(#clip810)" d="M2322.3 636.776 L2312.71 651.766 L2322.3 651.766 L2322.3 636.776 M2321.31 633.466 L2326.08 633.466 L2326.08 651.766 L2330.09 651.766 L2330.09 654.926 L2326.08 654.926 L2326.08 661.546 L2322.3 661.546 L2322.3 654.926 L2309.63 654.926 L2309.63 651.258 L2321.31 633.466 Z" fill="#000000" fill-rule="nonzero" fill-opacity="1" /><path clip-path="url(#clip810)" d="M1249.89 724.66 L1249.89 729.53 L1244.29 729.53 Q1241.13 729.53 1239.89 730.803 Q1238.68 732.076 1238.68 735.386 L1238.68 738.537 L1248.33 738.537 L1248.33 743.089 L1238.68 743.089 L1238.68 774.185 L1232.8 774.185 L1232.8 743.089 L1227.19 743.089 L1227.19 738.537 L1232.8 738.537 L1232.8 736.055 Q1232.8 730.103 1235.56 727.397 Q1238.33 724.66 1244.35 724.66 L1249.89 724.66 Z" fill="#000000" fill-rule="nonzero" fill-opacity="1" /><path clip-path="url(#clip810)" d="M1274.97 724.66 L1288.46 724.66 L1288.46 729.212 L1280.83 729.212 L1280.83 778.228 L1288.46 778.228 L1288.46 782.779 L1274.97 782.779 L1274.97 724.66 Z" fill="#000000" fill-rule="nonzero" fill-opacity="1" /><path clip-path="url(#clip810)" d="M1301.2 726.665 L1307.62 726.665 L1307.62 746.145 L1330.99 746.145 L1330.99 726.665 L1337.42 726.665 L1337.42 774.185 L1330.99 774.185 L1330.99 751.555 L1307.62 751.555 L1307.62 774.185 L1301.2 774.185 L1301.2 726.665 Z" fill="#000000" fill-rule="nonzero" fill-opacity="1" /><path clip-path="url(#clip810)" d="M1347.41 738.537 L1375.23 738.537 L1375.23 743.885 L1353.2 769.507 L1375.23 769.507 L1375.23 774.185 L1346.61 774.185 L1346.61 768.838 L1368.64 743.216 L1347.41 743.216 L1347.41 738.537 Z" fill="#000000" fill-rule="nonzero" fill-opacity="1" /><path clip-path="url(#clip810)" d="M1397.86 724.66 L1397.86 782.779 L1384.36 782.779 L1384.36 778.228 L1391.97 778.228 L1391.97 729.212 L1384.36 729.212 L1384.36 724.66 L1397.86 724.66 Z" fill="#000000" fill-rule="nonzero" fill-opacity="1" /><polyline clip-path="url(#clip812)" style="stroke:#000000; stroke-linecap:round; stroke-linejoin:round; stroke-width:2; stroke-opacity:0.1; fill:none" points="272.297,501.147 2352.76,501.147 "/>
<polyline clip-path="url(#clip812)" style="stroke:#000000; stroke-linecap:round; stroke-linejoin:round; stroke-width:2; stroke-opacity:0.1; fill:none" points="272.297,328.726 2352.76,328.726 "/>
<polyline clip-path="url(#clip812)" style="stroke:#000000; stroke-linecap:round; stroke-linejoin:round; stroke-width:2; stroke-opacity:0.1; fill:none" points="272.297,156.304 2352.76,156.304 "/>
<polyline clip-path="url(#clip810)" style="stroke:#000000; stroke-linecap:round; stroke-linejoin:round; stroke-width:4; stroke-opacity:1; fill:none" points="272.297,610.897 272.297,47.2441 "/>
<polyline clip-path="url(#clip810)" style="stroke:#000000; stroke-linecap:round; stroke-linejoin:round; stroke-width:4; stroke-opacity:1; fill:none" points="272.297,501.147 291.194,501.147 "/>
<polyline clip-path="url(#clip810)" style="stroke:#000000; stroke-linecap:round; stroke-linejoin:round; stroke-width:4; stroke-opacity:1; fill:none" points="272.297,328.726 291.194,328.726 "/>
<polyline clip-path="url(#clip810)" style="stroke:#000000; stroke-linecap:round; stroke-linejoin:round; stroke-width:4; stroke-opacity:1; fill:none" points="272.297,156.304 291.194,156.304 "/>
<path clip-path="url(#clip810)" d="M136.157 520.939 L143.796 520.939 L143.796 494.574 L135.485 496.24 L135.485 491.981 L143.749 490.315 L148.425 490.315 L148.425 520.939 L156.064 520.939 L156.064 524.875 L136.157 524.875 L136.157 520.939 Z" fill="#000000" fill-rule="nonzero" fill-opacity="1" /><path clip-path="url(#clip810)" d="M175.508 493.393 Q171.897 493.393 170.069 496.958 Q168.263 500.5 168.263 507.629 Q168.263 514.736 170.069 518.301 Q171.897 521.842 175.508 521.842 Q179.143 521.842 180.948 518.301 Q182.777 514.736 182.777 507.629 Q182.777 500.5 180.948 496.958 Q179.143 493.393 175.508 493.393 M175.508 489.69 Q181.319 489.69 184.374 494.296 Q187.453 498.879 187.453 507.629 Q187.453 516.356 184.374 520.963 Q181.319 525.546 175.508 525.546 Q169.698 525.546 166.62 520.963 Q163.564 516.356 163.564 507.629 Q163.564 498.879 166.62 494.296 Q169.698 489.69 175.508 489.69 Z" fill="#000000" fill-rule="nonzero" fill-opacity="1" /><path clip-path="url(#clip810)" d="M187.453 483.791 L211.564 483.791 L211.564 486.988 L187.453 486.988 L187.453 483.791 Z" fill="#000000" fill-rule="nonzero" fill-opacity="1" /><path clip-path="url(#clip810)" d="M223.037 494.267 L236.297 494.267 L236.297 497.464 L218.467 497.464 L218.467 494.267 Q220.63 492.029 224.354 488.267 Q228.096 484.487 229.056 483.396 Q230.88 481.346 231.595 479.935 Q232.328 478.506 232.328 477.133 Q232.328 474.895 230.748 473.484 Q229.187 472.074 226.667 472.074 Q224.88 472.074 222.887 472.694 Q220.912 473.315 218.655 474.575 L218.655 470.738 Q220.949 469.817 222.943 469.347 Q224.937 468.876 226.592 468.876 Q230.955 468.876 233.551 471.058 Q236.146 473.24 236.146 476.888 Q236.146 478.619 235.488 480.18 Q234.848 481.722 233.137 483.829 Q232.667 484.374 230.146 486.988 Q227.626 489.584 223.037 494.267 Z" fill="#000000" fill-rule="nonzero" fill-opacity="1" /><path clip-path="url(#clip810)" d="M135.856 348.518 L143.495 348.518 L143.495 322.152 L135.185 323.819 L135.185 319.56 L143.448 317.893 L148.124 317.893 L148.124 348.518 L155.763 348.518 L155.763 352.453 L135.856 352.453 L135.856 348.518 Z" fill="#000000" fill-rule="nonzero" fill-opacity="1" /><path clip-path="url(#clip810)" d="M175.207 320.972 Q171.596 320.972 169.768 324.537 Q167.962 328.078 167.962 335.208 Q167.962 342.314 169.768 345.879 Q171.596 349.421 175.207 349.421 Q178.842 349.421 180.647 345.879 Q182.476 342.314 182.476 335.208 Q182.476 328.078 180.647 324.537 Q178.842 320.972 175.207 320.972 M175.207 317.268 Q181.018 317.268 184.073 321.875 Q187.152 326.458 187.152 335.208 Q187.152 343.935 184.073 348.541 Q181.018 353.124 175.207 353.124 Q169.397 353.124 166.319 348.541 Q163.263 343.935 163.263 335.208 Q163.263 326.458 166.319 321.875 Q169.397 317.268 175.207 317.268 Z" fill="#000000" fill-rule="nonzero" fill-opacity="1" /><path clip-path="url(#clip810)" d="M187.152 311.369 L211.263 311.369 L211.263 314.567 L187.152 314.567 L187.152 311.369 Z" fill="#000000" fill-rule="nonzero" fill-opacity="1" /><path clip-path="url(#clip810)" d="M220.122 321.845 L226.328 321.845 L226.328 300.423 L219.576 301.778 L219.576 298.317 L226.291 296.963 L230.09 296.963 L230.09 321.845 L236.297 321.845 L236.297 325.043 L220.122 325.043 L220.122 321.845 Z" fill="#000000" fill-rule="nonzero" fill-opacity="1" /><path clip-path="url(#clip810)" d="M165.591 176.097 L173.23 176.097 L173.23 149.731 L164.92 151.398 L164.92 147.138 L173.183 145.472 L177.859 145.472 L177.859 176.097 L185.498 176.097 L185.498 180.032 L165.591 180.032 L165.591 176.097 Z" fill="#000000" fill-rule="nonzero" fill-opacity="1" /><path clip-path="url(#clip810)" d="M204.943 148.55 Q201.331 148.55 199.503 152.115 Q197.697 155.657 197.697 162.786 Q197.697 169.893 199.503 173.458 Q201.331 176.999 204.943 176.999 Q208.577 176.999 210.382 173.458 Q212.211 169.893 212.211 162.786 Q212.211 155.657 210.382 152.115 Q208.577 148.55 204.943 148.55 M204.943 144.847 Q210.753 144.847 213.808 149.453 Q216.887 154.036 216.887 162.786 Q216.887 171.513 213.808 176.12 Q210.753 180.703 204.943 180.703 Q199.132 180.703 196.054 176.12 Q192.998 171.513 192.998 162.786 Q192.998 154.036 196.054 149.453 Q199.132 144.847 204.943 144.847 Z" fill="#000000" fill-rule="nonzero" fill-opacity="1" /><path clip-path="url(#clip810)" d="M226.592 127.043 Q223.658 127.043 222.172 129.939 Q220.705 132.817 220.705 138.61 Q220.705 144.383 222.172 147.28 Q223.658 150.157 226.592 150.157 Q229.545 150.157 231.012 147.28 Q232.497 144.383 232.497 138.61 Q232.497 132.817 231.012 129.939 Q229.545 127.043 226.592 127.043 M226.592 124.033 Q231.312 124.033 233.795 127.776 Q236.297 131.5 236.297 138.61 Q236.297 145.7 233.795 149.443 Q231.312 153.167 226.592 153.167 Q221.871 153.167 219.37 149.443 Q216.887 145.7 216.887 138.61 Q216.887 131.5 219.37 127.776 Q221.871 124.033 226.592 124.033 Z" fill="#000000" fill-rule="nonzero" fill-opacity="1" /><path clip-path="url(#clip810)" d="M35.1169 420.625 L100.302 420.625 L100.302 426.036 L35.1169 426.036 L35.1169 420.625 Z" fill="#000000" fill-rule="nonzero" fill-opacity="1" /><path clip-path="url(#clip810)" d="M37.4085 406.684 L37.4085 400.223 L66.277 400.223 Q73.9159 400.223 77.2897 397.454 Q80.6317 394.685 80.6317 388.478 Q80.6317 382.304 77.2897 379.535 Q73.9159 376.765 66.277 376.765 L37.4085 376.765 L37.4085 370.304 L67.0727 370.304 Q76.3666 370.304 81.1091 374.919 Q85.8516 379.503 85.8516 388.478 Q85.8516 397.486 81.1091 402.101 Q76.3666 406.684 67.0727 406.684 L37.4085 406.684 Z" fill="#000000" fill-rule="nonzero" fill-opacity="1" /><path clip-path="url(#clip810)" d="M35.1169 350.952 L100.302 350.952 L100.302 356.363 L35.1169 356.363 L35.1169 350.952 Z" fill="#000000" fill-rule="nonzero" fill-opacity="1" /><path clip-path="url(#clip810)" d="M35.4033 316.355 L35.4033 302.86 L39.9548 302.86 L39.9548 310.498 L88.9707 310.498 L88.9707 302.86 L93.5222 302.86 L93.5222 316.355 L35.4033 316.355 Z" fill="#000000" fill-rule="nonzero" fill-opacity="1" /><path clip-path="url(#clip810)" d="M84.9285 277.874 L37.4085 296.016 L37.4085 289.301 L77.417 274.246 L37.4085 259.159 L37.4085 252.475 L84.9285 270.585 L84.9285 277.874 Z" fill="#000000" fill-rule="nonzero" fill-opacity="1" /><path clip-path="url(#clip810)" d="M35.4033 232.105 L93.5222 232.105 L93.5222 245.6 L88.9707 245.6 L88.9707 237.993 L39.9548 237.993 L39.9548 245.6 L35.4033 245.6 L35.4033 232.105 Z" fill="#000000" fill-rule="nonzero" fill-opacity="1" /><polyline clip-path="url(#clip812)" style="stroke:#009af9; stroke-linecap:round; stroke-linejoin:round; stroke-width:4; stroke-opacity:1; fill:none" points="331.177,88.2063 363.884,88.189 396.618,88.2063 429.405,88.2063 462.043,88.2321 494.691,88.2666 527.41,88.2752 560.194,88.3011 592.883,88.3097 625.543,88.3097 658.269,87.8097 690.995,87.758 723.712,87.7235 756.439,87.6459 789.147,87.5597 821.831,87.4045 854.583,87.2752 887.257,87.0683 919.977,86.8527 952.714,86.5424 985.41,86.1631 1018.12,85.6803 1050.85,85.0768 1083.64,84.3182 1116.28,83.3353 1148.92,82.1629 1181.64,80.6714 1214.43,78.7834 1247.12,76.4902 1279.78,74.1367 1312.5,70.9038 1345.23,67.3346 1377.94,64.3173 1410.67,63.1965 1443.38,66.645 1476.06,76.1712 1508.82,91.1029 1541.49,108.897 1574.21,128.751 1606.95,148.559 1639.64,168.391 1672.35,187.995 1705.08,207.168 1737.87,226.005 1770.51,244.325 1803.16,262.688 1835.87,280.792 1868.66,298.81 1901.35,316.484 1934.01,334.071 1966.73,351.658 1999.46,369.158 2032.18,386.745 2064.9,404.074 2097.61,421.23 2130.3,438.472 2163.05,455.714 2195.72,472.87 2228.44,489.94 2261.18,506.923 2293.87,524.079 "/>
<polyline clip-path="url(#clip812)" style="stroke:#e26f46; stroke-linecap:round; stroke-linejoin:round; stroke-width:4; stroke-opacity:1; fill:none" points="331.177,158.133 363.884,158.145 396.618,158.139 429.405,158.144 462.043,158.145 494.691,158.159 527.41,158.163 560.194,158.167 592.883,158.16 625.543,158.152 658.269,157.808 690.995,157.774 723.712,157.703 756.439,157.634 789.147,157.537 821.831,157.406 854.583,157.256 887.257,157.061 919.977,156.83 952.714,156.518 985.41,156.173 1018.12,155.672 1050.85,155.101 1083.64,154.335 1116.28,153.395 1148.92,152.213 1181.64,150.733 1214.43,148.868 1247.12,146.614 1279.78,143.873 1312.5,141.002 1345.23,137.519 1377.94,134.536 1410.67,133.363 1443.38,136.674 1476.06,145.838 1508.82,160.497 1541.49,178.184 1574.21,197.978 1606.95,218.057 1639.64,237.653 1672.35,257.343 1705.08,276.396 1737.87,295.276 1770.51,313.725 1803.16,332.088 1835.87,350.106 1868.66,368.038 1901.35,385.797 1934.01,403.125 1966.73,420.971 1999.46,438.558 2032.18,456.317 2064.9,473.56 2097.61,490.974 2130.3,508.389 2163.05,525.803 2195.72,543.132 2228.44,560.374 2261.18,577.53 2293.87,594.944 "/>
<polyline clip-path="url(#clip812)" style="stroke:#3da44d; stroke-linecap:round; stroke-linejoin:round; stroke-width:4; stroke-opacity:1; fill:none" points="331.177,157.1 363.884,157.083 396.618,157.048 429.405,156.995 462.043,156.971 494.691,156.925 527.41,156.886 560.194,156.851 592.883,156.789 625.543,156.74 658.269,156.861 690.995,156.798 723.712,156.676 756.439,156.539 789.147,156.348 821.831,156.119 854.583,155.856 887.257,155.486 919.977,155.046 952.714,154.495 985.41,153.77 1018.12,152.911 1050.85,151.811 1083.64,150.427 1116.28,148.732 1148.92,146.648 1181.64,144.01 1214.43,140.622 1247.12,136.683 1279.78,131.95 1312.5,126.811 1345.23,120.578 1377.94,114.423 1410.67,109.819 1443.38,109.276 1476.06,114.259 1508.82,124.035 1541.49,136.596 1574.21,150.285 1606.95,163.709 1639.64,177.098 1672.35,189.581 1705.08,201.53 1737.87,212.901 1770.51,223.85 1803.16,234.239 1835.87,243.98 1868.66,253.636 1901.35,263.205 1934.01,272.516 1966.73,281.827 1999.46,290.793 2032.18,299.845 2064.9,308.552 2097.61,317.432 2130.3,326.312 2163.05,334.933 2195.72,343.554 2228.44,352.261 2261.18,360.796 2293.87,369.589 "/>
<polyline clip-path="url(#clip812)" style="stroke:#c271d2; stroke-linecap:round; stroke-linejoin:round; stroke-width:4; stroke-opacity:1; fill:none" points="331.177,156.513 363.884,156.505 396.618,156.496 429.405,156.502 462.043,156.486 494.691,156.497 527.41,156.492 560.194,156.488 592.883,156.489 625.543,156.482 658.269,156.504 690.995,156.489 723.712,156.504 756.439,156.491 789.147,156.463 821.831,156.506 854.583,156.484 887.257,156.488 919.977,156.479 952.714,156.472 985.41,156.459 1018.12,156.447 1050.85,156.431 1083.64,156.389 1116.28,156.378 1148.92,156.342 1181.64,156.291 1214.43,156.223 1247.12,156.156 1279.78,156.066 1312.5,155.943 1345.23,155.827 1377.94,155.717 1410.67,155.732 1443.38,155.937 1476.06,156.358 1508.82,156.811 1541.49,157.132 1574.21,157.34 1606.95,157.452 1639.64,157.53 1672.35,157.551 1705.08,157.583 1737.87,157.591 1770.51,157.596 1803.16,157.615 1835.87,157.594 1868.66,157.598 1901.35,157.59 1934.01,157.581 1966.73,157.58 1999.46,157.587 2032.18,157.589 2064.9,157.57 2097.61,157.564 2130.3,157.56 2163.05,157.568 2195.72,157.572 2228.44,157.556 2261.18,157.552 2293.87,157.568 "/>
<polyline clip-path="url(#clip812)" style="stroke:#ac8d18; stroke-linecap:round; stroke-linejoin:round; stroke-width:4; stroke-opacity:1; fill:none" points="331.177,156.677 363.884,156.721 396.618,156.744 429.405,156.737 462.043,156.742 494.691,156.749 527.41,156.773 560.194,156.787 592.883,156.832 625.543,156.798 658.269,156.292 690.995,156.264 723.712,156.178 756.439,156.096 789.147,156.037 821.831,155.897 854.583,155.741 887.257,155.548 919.977,155.282 952.714,154.987 985.41,154.595 1018.12,154.082 1050.85,153.448 1083.64,152.668 1116.28,151.705 1148.92,150.45 1181.64,148.896 1214.43,146.933 1247.12,144.545 1279.78,141.95 1312.5,138.502 1345.23,134.726 1377.94,131.415 1410.67,129.993 1443.38,133.467 1476.06,143.2 1508.82,158.552 1541.49,176.831 1574.21,196.918 1606.95,216.945 1639.64,236.885 1672.35,256.653 1705.08,275.706 1737.87,294.672 1770.51,313.121 1803.16,331.484 1835.87,349.416 1868.66,367.348 1901.35,385.107 1934.01,402.694 1966.73,420.109 1999.46,437.523 2032.18,455.197 2064.9,472.439 2097.61,489.681 2130.3,506.751 2163.05,524.079 2195.72,540.976 2228.44,557.874 2261.18,574.426 2293.87,591.496 "/>
<path clip-path="url(#clip810)" d="M2029.18 377.073 L2283.41 377.073 L2283.41 66.0325 L2029.18 66.0325  Z" fill="#000000" fill-rule="evenodd" fill-opacity="0"/>
<polyline clip-path="url(#clip810)" style="stroke:#000000; stroke-linecap:round; stroke-linejoin:round; stroke-width:4; stroke-opacity:1; fill:none" points="2029.18,377.073 2283.41,377.073 2283.41,66.0325 2029.18,66.0325 2029.18,377.073 "/>
<polyline clip-path="url(#clip810)" style="stroke:#009af9; stroke-linecap:round; stroke-linejoin:round; stroke-width:4; stroke-opacity:1; fill:none" points="2052.3,117.873 2190.99,117.873 "/>
<path clip-path="url(#clip810)" d="M2229.2 99.1342 L2229.2 108.694 Q2233.81 108.694 2236.89 112.236 Q2240.06 115.847 2240.06 122.213 Q2240.06 128.578 2236.89 132.19 Q2233.81 135.731 2229.2 135.731 L2229.2 145.014 L2224.97 145.014 L2224.97 135.731 Q2220.36 135.731 2217.26 132.19 Q2214.11 128.578 2214.11 122.213 Q2214.11 115.847 2217.26 112.236 Q2220.36 108.694 2224.97 108.694 L2224.97 99.1342 L2229.2 99.1342 M2229.2 131.935 Q2231.82 131.935 2233.6 129.551 Q2235.55 126.889 2235.57 122.213 Q2235.59 117.583 2233.6 114.875 Q2231.82 112.491 2229.2 112.491 L2229.2 131.935 M2224.97 131.935 L2224.97 112.491 Q2222.35 112.491 2220.59 114.875 Q2218.58 117.583 2218.6 122.213 Q2218.62 126.889 2220.59 129.551 Q2222.35 131.935 2224.97 131.935 Z" fill="#000000" fill-rule="nonzero" fill-opacity="1" /><path clip-path="url(#clip810)" d="M2246.08 115.824 L2257.88 115.824 L2257.88 118.023 L2248.83 118.023 L2248.83 122.745 Q2249.48 122.537 2250.15 122.444 Q2250.8 122.352 2251.45 122.352 Q2255.18 122.352 2257.35 124.134 Q2259.53 125.893 2259.53 128.926 Q2259.53 132.051 2257.28 133.787 Q2255.06 135.5 2250.99 135.5 Q2249.6 135.5 2248.14 135.291 Q2246.68 135.083 2245.15 134.666 L2245.15 132.051 Q2246.47 132.676 2247.91 133 Q2249.34 133.301 2250.94 133.301 Q2253.51 133.301 2255.01 132.12 Q2256.52 130.94 2256.52 128.926 Q2256.52 126.912 2255.01 125.731 Q2253.51 124.551 2250.94 124.551 Q2249.74 124.551 2248.53 124.782 Q2247.33 125.014 2246.08 125.5 L2246.08 115.824 Z" fill="#000000" fill-rule="nonzero" fill-opacity="1" /><polyline clip-path="url(#clip810)" style="stroke:#e26f46; stroke-linecap:round; stroke-linejoin:round; stroke-width:4; stroke-opacity:1; fill:none" points="2052.3,169.713 2190.99,169.713 "/>
<path clip-path="url(#clip810)" d="M2229.2 150.974 L2229.2 160.534 Q2233.81 160.534 2236.89 164.076 Q2240.06 167.687 2240.06 174.053 Q2240.06 180.418 2236.89 184.03 Q2233.81 187.571 2229.2 187.571 L2229.2 196.854 L2224.97 196.854 L2224.97 187.571 Q2220.36 187.571 2217.26 184.03 Q2214.11 180.418 2214.11 174.053 Q2214.11 167.687 2217.26 164.076 Q2220.36 160.534 2224.97 160.534 L2224.97 150.974 L2229.2 150.974 M2229.2 183.775 Q2231.82 183.775 2233.6 181.391 Q2235.55 178.729 2235.57 174.053 Q2235.59 169.423 2233.6 166.715 Q2231.82 164.331 2229.2 164.331 L2229.2 183.775 M2224.97 183.775 L2224.97 164.331 Q2222.35 164.331 2220.59 166.715 Q2218.58 169.423 2218.6 174.053 Q2218.62 178.729 2220.59 181.391 Q2222.35 183.775 2224.97 183.775 Z" fill="#000000" fill-rule="nonzero" fill-opacity="1" /><path clip-path="url(#clip810)" d="M2254.92 176.53 Q2257.05 176.946 2258.21 178.219 Q2259.39 179.469 2259.39 181.368 Q2259.39 184.238 2257.19 185.789 Q2254.99 187.34 2250.89 187.34 Q2249.57 187.34 2248.12 187.085 Q2246.68 186.854 2245.06 186.391 L2245.06 183.59 Q2246.26 184.215 2247.63 184.516 Q2249.02 184.817 2250.57 184.817 Q2253.09 184.817 2254.48 183.914 Q2255.87 182.988 2255.87 181.368 Q2255.87 179.655 2254.57 178.775 Q2253.3 177.895 2250.8 177.895 L2248.81 177.895 L2248.81 175.395 L2250.99 175.395 Q2253.16 175.395 2254.27 174.678 Q2255.41 173.937 2255.41 172.548 Q2255.41 171.206 2254.25 170.511 Q2253.09 169.794 2250.89 169.794 Q2249.97 169.794 2248.79 170.002 Q2247.61 170.21 2245.73 170.743 L2245.73 168.081 Q2247.42 167.687 2248.9 167.479 Q2250.38 167.27 2251.66 167.27 Q2254.99 167.27 2256.93 168.636 Q2258.9 170.002 2258.9 172.294 Q2258.9 173.891 2257.86 175.002 Q2256.82 176.113 2254.92 176.53 Z" fill="#000000" fill-rule="nonzero" fill-opacity="1" /><polyline clip-path="url(#clip810)" style="stroke:#3da44d; stroke-linecap:round; stroke-linejoin:round; stroke-width:4; stroke-opacity:1; fill:none" points="2052.3,221.553 2190.99,221.553 "/>
<path clip-path="url(#clip810)" d="M2229.2 202.814 L2229.2 212.374 Q2233.81 212.374 2236.89 215.916 Q2240.06 219.527 2240.06 225.893 Q2240.06 232.258 2236.89 235.87 Q2233.81 239.411 2229.2 239.411 L2229.2 248.694 L2224.97 248.694 L2224.97 239.411 Q2220.36 239.411 2217.26 235.87 Q2214.11 232.258 2214.11 225.893 Q2214.11 219.527 2217.26 215.916 Q2220.36 212.374 2224.97 212.374 L2224.97 202.814 L2229.2 202.814 M2229.2 235.615 Q2231.82 235.615 2233.6 233.231 Q2235.55 230.569 2235.57 225.893 Q2235.59 221.263 2233.6 218.555 Q2231.82 216.171 2229.2 216.171 L2229.2 235.615 M2224.97 235.615 L2224.97 216.171 Q2222.35 216.171 2220.59 218.555 Q2218.58 221.263 2218.6 225.893 Q2218.62 230.569 2220.59 233.231 Q2222.35 235.615 2224.97 235.615 Z" fill="#000000" fill-rule="nonzero" fill-opacity="1" /><path clip-path="url(#clip810)" d="M2248.99 236.194 L2258.81 236.194 L2258.81 238.833 L2244.97 238.833 L2244.97 236.286 Q2245.75 235.569 2247.21 234.272 Q2255.18 227.212 2255.18 225.036 Q2255.18 223.509 2253.97 222.583 Q2252.77 221.634 2250.8 221.634 Q2249.6 221.634 2248.18 222.05 Q2246.77 222.444 2245.11 223.254 L2245.11 220.407 Q2246.89 219.759 2248.42 219.434 Q2249.97 219.11 2251.29 219.11 Q2254.64 219.11 2256.66 220.638 Q2258.67 222.166 2258.67 224.666 Q2258.67 227.883 2251.01 234.458 Q2249.71 235.569 2248.99 236.194 Z" fill="#000000" fill-rule="nonzero" fill-opacity="1" /><polyline clip-path="url(#clip810)" style="stroke:#c271d2; stroke-linecap:round; stroke-linejoin:round; stroke-width:4; stroke-opacity:1; fill:none" points="2052.3,273.393 2190.99,273.393 "/>
<path clip-path="url(#clip810)" d="M2229.2 254.654 L2229.2 264.214 Q2233.81 264.214 2236.89 267.756 Q2240.06 271.367 2240.06 277.733 Q2240.06 284.098 2236.89 287.71 Q2233.81 291.251 2229.2 291.251 L2229.2 300.534 L2224.97 300.534 L2224.97 291.251 Q2220.36 291.251 2217.26 287.71 Q2214.11 284.098 2214.11 277.733 Q2214.11 271.367 2217.26 267.756 Q2220.36 264.214 2224.97 264.214 L2224.97 254.654 L2229.2 254.654 M2229.2 287.455 Q2231.82 287.455 2233.6 285.071 Q2235.55 282.409 2235.57 277.733 Q2235.59 273.103 2233.6 270.395 Q2231.82 268.011 2229.2 268.011 L2229.2 287.455 M2224.97 287.455 L2224.97 268.011 Q2222.35 268.011 2220.59 270.395 Q2218.58 273.103 2218.6 277.733 Q2218.62 282.409 2220.59 285.071 Q2222.35 287.455 2224.97 287.455 Z" fill="#000000" fill-rule="nonzero" fill-opacity="1" /><path clip-path="url(#clip810)" d="M2246.4 288.126 L2251.12 288.126 L2251.12 273.983 L2245.96 274.932 L2245.96 272.247 L2251.29 271.344 L2254.46 271.344 L2254.46 288.126 L2259.2 288.126 L2259.2 290.673 L2246.4 290.673 L2246.4 288.126 Z" fill="#000000" fill-rule="nonzero" fill-opacity="1" /><polyline clip-path="url(#clip810)" style="stroke:#ac8d18; stroke-linecap:round; stroke-linejoin:round; stroke-width:4; stroke-opacity:1; fill:none" points="2052.3,325.233 2190.99,325.233 "/>
<path clip-path="url(#clip810)" d="M2229.2 306.494 L2229.2 316.054 Q2233.81 316.054 2236.89 319.596 Q2240.06 323.207 2240.06 329.573 Q2240.06 335.938 2236.89 339.55 Q2233.81 343.091 2229.2 343.091 L2229.2 352.374 L2224.97 352.374 L2224.97 343.091 Q2220.36 343.091 2217.26 339.55 Q2214.11 335.938 2214.11 329.573 Q2214.11 323.207 2217.26 319.596 Q2220.36 316.054 2224.97 316.054 L2224.97 306.494 L2229.2 306.494 M2229.2 339.295 Q2231.82 339.295 2233.6 336.911 Q2235.55 334.249 2235.57 329.573 Q2235.59 324.943 2233.6 322.235 Q2231.82 319.851 2229.2 319.851 L2229.2 339.295 M2224.97 339.295 L2224.97 319.851 Q2222.35 319.851 2220.59 322.235 Q2218.58 324.943 2218.6 329.573 Q2218.62 334.249 2220.59 336.911 Q2222.35 339.295 2224.97 339.295 Z" fill="#000000" fill-rule="nonzero" fill-opacity="1" /><path clip-path="url(#clip810)" d="M2253.83 325.985 L2246.68 335.684 L2253.83 335.684 L2253.83 325.985 M2253.32 323.184 L2257.17 323.184 L2257.17 335.684 L2260.29 335.684 L2260.29 338.207 L2257.17 338.207 L2257.17 342.513 L2253.83 342.513 L2253.83 338.207 L2244.25 338.207 L2244.25 335.406 L2253.32 323.184 Z" fill="#000000" fill-rule="nonzero" fill-opacity="1" /><defs>
  <clipPath id="clip813">
    <rect x="272" y="847" width="2081" height="565"/>
  </clipPath>
</defs>
<polyline clip-path="url(#clip813)" style="stroke:#000000; stroke-linecap:round; stroke-linejoin:round; stroke-width:2; stroke-opacity:0.1; fill:none" points="985.41,1410.9 985.41,847.244 "/>
<polyline clip-path="url(#clip813)" style="stroke:#000000; stroke-linecap:round; stroke-linejoin:round; stroke-width:2; stroke-opacity:0.1; fill:none" points="2293.87,1410.9 2293.87,847.244 "/>
<polyline clip-path="url(#clip810)" style="stroke:#000000; stroke-linecap:round; stroke-linejoin:round; stroke-width:4; stroke-opacity:1; fill:none" points="272.297,1410.9 2352.76,1410.9 "/>
<polyline clip-path="url(#clip810)" style="stroke:#000000; stroke-linecap:round; stroke-linejoin:round; stroke-width:4; stroke-opacity:1; fill:none" points="985.41,1410.9 985.41,1392 "/>
<polyline clip-path="url(#clip810)" style="stroke:#000000; stroke-linecap:round; stroke-linejoin:round; stroke-width:4; stroke-opacity:1; fill:none" points="2293.87,1410.9 2293.87,1392 "/>
<path clip-path="url(#clip810)" d="M951.183 1485.02 L958.822 1485.02 L958.822 1458.66 L950.511 1460.32 L950.511 1456.06 L958.775 1454.4 L963.451 1454.4 L963.451 1485.02 L971.09 1485.02 L971.09 1488.96 L951.183 1488.96 L951.183 1485.02 Z" fill="#000000" fill-rule="nonzero" fill-opacity="1" /><path clip-path="url(#clip810)" d="M990.534 1457.48 Q986.923 1457.48 985.095 1461.04 Q983.289 1464.58 983.289 1471.71 Q983.289 1478.82 985.095 1482.38 Q986.923 1485.92 990.534 1485.92 Q994.169 1485.92 995.974 1482.38 Q997.803 1478.82 997.803 1471.71 Q997.803 1464.58 995.974 1461.04 Q994.169 1457.48 990.534 1457.48 M990.534 1453.77 Q996.345 1453.77 999.4 1458.38 Q1002.48 1462.96 1002.48 1471.71 Q1002.48 1480.44 999.4 1485.04 Q996.345 1489.63 990.534 1489.63 Q984.724 1489.63 981.646 1485.04 Q978.59 1480.44 978.59 1471.71 Q978.59 1462.96 981.646 1458.38 Q984.724 1453.77 990.534 1453.77 Z" fill="#000000" fill-rule="nonzero" fill-opacity="1" /><path clip-path="url(#clip810)" d="M1007.05 1458.35 L1020.31 1458.35 L1020.31 1461.55 L1002.48 1461.55 L1002.48 1458.35 Q1004.64 1456.11 1008.37 1452.35 Q1012.11 1448.57 1013.07 1447.48 Q1014.89 1445.43 1015.61 1444.02 Q1016.34 1442.59 1016.34 1441.22 Q1016.34 1438.98 1014.76 1437.57 Q1013.2 1436.16 1010.68 1436.16 Q1008.89 1436.16 1006.9 1436.78 Q1004.92 1437.4 1002.67 1438.66 L1002.67 1434.82 Q1004.96 1433.9 1006.95 1433.43 Q1008.95 1432.96 1010.6 1432.96 Q1014.97 1432.96 1017.56 1435.14 Q1020.16 1437.32 1020.16 1440.97 Q1020.16 1442.7 1019.5 1444.26 Q1018.86 1445.8 1017.15 1447.91 Q1016.68 1448.46 1014.16 1451.07 Q1011.64 1453.67 1007.05 1458.35 Z" fill="#000000" fill-rule="nonzero" fill-opacity="1" /><path clip-path="url(#clip810)" d="M2258.33 1485.02 L2265.97 1485.02 L2265.97 1458.66 L2257.66 1460.32 L2257.66 1456.06 L2265.92 1454.4 L2270.6 1454.4 L2270.6 1485.02 L2278.24 1485.02 L2278.24 1488.96 L2258.33 1488.96 L2258.33 1485.02 Z" fill="#000000" fill-rule="nonzero" fill-opacity="1" /><path clip-path="url(#clip810)" d="M2297.68 1457.48 Q2294.07 1457.48 2292.24 1461.04 Q2290.44 1464.58 2290.44 1471.71 Q2290.44 1478.82 2292.24 1482.38 Q2294.07 1485.92 2297.68 1485.92 Q2301.32 1485.92 2303.12 1482.38 Q2304.95 1478.82 2304.95 1471.71 Q2304.95 1464.58 2303.12 1461.04 Q2301.32 1457.48 2297.68 1457.48 M2297.68 1453.77 Q2303.49 1453.77 2306.55 1458.38 Q2309.63 1462.96 2309.63 1471.71 Q2309.63 1480.44 2306.55 1485.04 Q2303.49 1489.63 2297.68 1489.63 Q2291.87 1489.63 2288.79 1485.04 Q2285.74 1480.44 2285.74 1471.71 Q2285.74 1462.96 2288.79 1458.38 Q2291.87 1453.77 2297.68 1453.77 Z" fill="#000000" fill-rule="nonzero" fill-opacity="1" /><path clip-path="url(#clip810)" d="M2322.3 1436.78 L2312.71 1451.77 L2322.3 1451.77 L2322.3 1436.78 M2321.31 1433.47 L2326.08 1433.47 L2326.08 1451.77 L2330.09 1451.77 L2330.09 1454.93 L2326.08 1454.93 L2326.08 1461.55 L2322.3 1461.55 L2322.3 1454.93 L2309.63 1454.93 L2309.63 1451.26 L2321.31 1433.47 Z" fill="#000000" fill-rule="nonzero" fill-opacity="1" /><path clip-path="url(#clip810)" d="M1249.89 1524.66 L1249.89 1529.53 L1244.29 1529.53 Q1241.13 1529.53 1239.89 1530.8 Q1238.68 1532.08 1238.68 1535.39 L1238.68 1538.54 L1248.33 1538.54 L1248.33 1543.09 L1238.68 1543.09 L1238.68 1574.19 L1232.8 1574.19 L1232.8 1543.09 L1227.19 1543.09 L1227.19 1538.54 L1232.8 1538.54 L1232.8 1536.05 Q1232.8 1530.1 1235.56 1527.4 Q1238.33 1524.66 1244.35 1524.66 L1249.89 1524.66 Z" fill="#000000" fill-rule="nonzero" fill-opacity="1" /><path clip-path="url(#clip810)" d="M1274.97 1524.66 L1288.46 1524.66 L1288.46 1529.21 L1280.83 1529.21 L1280.83 1578.23 L1288.46 1578.23 L1288.46 1582.78 L1274.97 1582.78 L1274.97 1524.66 Z" fill="#000000" fill-rule="nonzero" fill-opacity="1" /><path clip-path="url(#clip810)" d="M1301.2 1526.67 L1307.62 1526.67 L1307.62 1546.14 L1330.99 1546.14 L1330.99 1526.67 L1337.42 1526.67 L1337.42 1574.19 L1330.99 1574.19 L1330.99 1551.56 L1307.62 1551.56 L1307.62 1574.19 L1301.2 1574.19 L1301.2 1526.67 Z" fill="#000000" fill-rule="nonzero" fill-opacity="1" /><path clip-path="url(#clip810)" d="M1347.41 1538.54 L1375.23 1538.54 L1375.23 1543.88 L1353.2 1569.51 L1375.23 1569.51 L1375.23 1574.19 L1346.61 1574.19 L1346.61 1568.84 L1368.64 1543.22 L1347.41 1543.22 L1347.41 1538.54 Z" fill="#000000" fill-rule="nonzero" fill-opacity="1" /><path clip-path="url(#clip810)" d="M1397.86 1524.66 L1397.86 1582.78 L1384.36 1582.78 L1384.36 1578.23 L1391.97 1578.23 L1391.97 1529.21 L1384.36 1529.21 L1384.36 1524.66 L1397.86 1524.66 Z" fill="#000000" fill-rule="nonzero" fill-opacity="1" /><polyline clip-path="url(#clip813)" style="stroke:#000000; stroke-linecap:round; stroke-linejoin:round; stroke-width:2; stroke-opacity:0.1; fill:none" points="272.297,1309.88 2352.76,1309.88 "/>
<polyline clip-path="url(#clip813)" style="stroke:#000000; stroke-linecap:round; stroke-linejoin:round; stroke-width:2; stroke-opacity:0.1; fill:none" points="272.297,1164.23 2352.76,1164.23 "/>
<polyline clip-path="url(#clip813)" style="stroke:#000000; stroke-linecap:round; stroke-linejoin:round; stroke-width:2; stroke-opacity:0.1; fill:none" points="272.297,1018.58 2352.76,1018.58 "/>
<polyline clip-path="url(#clip813)" style="stroke:#000000; stroke-linecap:round; stroke-linejoin:round; stroke-width:2; stroke-opacity:0.1; fill:none" points="272.297,872.926 2352.76,872.926 "/>
<polyline clip-path="url(#clip810)" style="stroke:#000000; stroke-linecap:round; stroke-linejoin:round; stroke-width:4; stroke-opacity:1; fill:none" points="272.297,1410.9 272.297,847.244 "/>
<polyline clip-path="url(#clip810)" style="stroke:#000000; stroke-linecap:round; stroke-linejoin:round; stroke-width:4; stroke-opacity:1; fill:none" points="272.297,1309.88 291.194,1309.88 "/>
<polyline clip-path="url(#clip810)" style="stroke:#000000; stroke-linecap:round; stroke-linejoin:round; stroke-width:4; stroke-opacity:1; fill:none" points="272.297,1164.23 291.194,1164.23 "/>
<polyline clip-path="url(#clip810)" style="stroke:#000000; stroke-linecap:round; stroke-linejoin:round; stroke-width:4; stroke-opacity:1; fill:none" points="272.297,1018.58 291.194,1018.58 "/>
<polyline clip-path="url(#clip810)" style="stroke:#000000; stroke-linecap:round; stroke-linejoin:round; stroke-width:4; stroke-opacity:1; fill:none" points="272.297,872.926 291.194,872.926 "/>
<path clip-path="url(#clip810)" d="M114.26 1310.33 L143.936 1310.33 L143.936 1314.27 L114.26 1314.27 L114.26 1310.33 Z" fill="#000000" fill-rule="nonzero" fill-opacity="1" /><path clip-path="url(#clip810)" d="M154.839 1323.23 L162.477 1323.23 L162.477 1296.86 L154.167 1298.53 L154.167 1294.27 L162.431 1292.6 L167.107 1292.6 L167.107 1323.23 L174.746 1323.23 L174.746 1327.16 L154.839 1327.16 L154.839 1323.23 Z" fill="#000000" fill-rule="nonzero" fill-opacity="1" /><path clip-path="url(#clip810)" d="M184.237 1292.6 L202.593 1292.6 L202.593 1296.54 L188.519 1296.54 L188.519 1305.01 Q189.538 1304.66 190.556 1304.5 Q191.575 1304.32 192.593 1304.32 Q198.38 1304.32 201.76 1307.49 Q205.139 1310.66 205.139 1316.08 Q205.139 1321.65 201.667 1324.76 Q198.195 1327.83 191.875 1327.83 Q189.7 1327.83 187.431 1327.46 Q185.186 1327.09 182.778 1326.35 L182.778 1321.65 Q184.862 1322.79 187.084 1323.34 Q189.306 1323.9 191.783 1323.9 Q195.787 1323.9 198.125 1321.79 Q200.463 1319.69 200.463 1316.08 Q200.463 1312.46 198.125 1310.36 Q195.787 1308.25 191.783 1308.25 Q189.908 1308.25 188.033 1308.67 Q186.181 1309.08 184.237 1309.96 L184.237 1292.6 Z" fill="#000000" fill-rule="nonzero" fill-opacity="1" /><path clip-path="url(#clip810)" d="M224.352 1295.68 Q220.741 1295.68 218.912 1299.25 Q217.107 1302.79 217.107 1309.92 Q217.107 1317.02 218.912 1320.59 Q220.741 1324.13 224.352 1324.13 Q227.986 1324.13 229.792 1320.59 Q231.621 1317.02 231.621 1309.92 Q231.621 1302.79 229.792 1299.25 Q227.986 1295.68 224.352 1295.68 M224.352 1291.98 Q230.162 1291.98 233.218 1296.58 Q236.297 1301.17 236.297 1309.92 Q236.297 1318.64 233.218 1323.25 Q230.162 1327.83 224.352 1327.83 Q218.542 1327.83 215.463 1323.25 Q212.408 1318.64 212.408 1309.92 Q212.408 1301.17 215.463 1296.58 Q218.542 1291.98 224.352 1291.98 Z" fill="#000000" fill-rule="nonzero" fill-opacity="1" /><path clip-path="url(#clip810)" d="M114.26 1164.68 L143.936 1164.68 L143.936 1168.62 L114.26 1168.62 L114.26 1164.68 Z" fill="#000000" fill-rule="nonzero" fill-opacity="1" /><path clip-path="url(#clip810)" d="M154.839 1177.58 L162.477 1177.58 L162.477 1151.21 L154.167 1152.88 L154.167 1148.62 L162.431 1146.95 L167.107 1146.95 L167.107 1177.58 L174.746 1177.58 L174.746 1181.51 L154.839 1181.51 L154.839 1177.58 Z" fill="#000000" fill-rule="nonzero" fill-opacity="1" /><path clip-path="url(#clip810)" d="M194.19 1150.03 Q190.579 1150.03 188.75 1153.59 Q186.945 1157.14 186.945 1164.27 Q186.945 1171.37 188.75 1174.94 Q190.579 1178.48 194.19 1178.48 Q197.825 1178.48 199.63 1174.94 Q201.459 1171.37 201.459 1164.27 Q201.459 1157.14 199.63 1153.59 Q197.825 1150.03 194.19 1150.03 M194.19 1146.33 Q200 1146.33 203.056 1150.93 Q206.135 1155.52 206.135 1164.27 Q206.135 1172.99 203.056 1177.6 Q200 1182.18 194.19 1182.18 Q188.38 1182.18 185.301 1177.6 Q182.246 1172.99 182.246 1164.27 Q182.246 1155.52 185.301 1150.93 Q188.38 1146.33 194.19 1146.33 Z" fill="#000000" fill-rule="nonzero" fill-opacity="1" /><path clip-path="url(#clip810)" d="M224.352 1150.03 Q220.741 1150.03 218.912 1153.59 Q217.107 1157.14 217.107 1164.27 Q217.107 1171.37 218.912 1174.94 Q220.741 1178.48 224.352 1178.48 Q227.986 1178.48 229.792 1174.94 Q231.621 1171.37 231.621 1164.27 Q231.621 1157.14 229.792 1153.59 Q227.986 1150.03 224.352 1150.03 M224.352 1146.33 Q230.162 1146.33 233.218 1150.93 Q236.297 1155.52 236.297 1164.27 Q236.297 1172.99 233.218 1177.6 Q230.162 1182.18 224.352 1182.18 Q218.542 1182.18 215.463 1177.6 Q212.408 1172.99 212.408 1164.27 Q212.408 1155.52 215.463 1150.93 Q218.542 1146.33 224.352 1146.33 Z" fill="#000000" fill-rule="nonzero" fill-opacity="1" /><path clip-path="url(#clip810)" d="M144.422 1019.03 L174.098 1019.03 L174.098 1022.97 L144.422 1022.97 L144.422 1019.03 Z" fill="#000000" fill-rule="nonzero" fill-opacity="1" /><path clip-path="url(#clip810)" d="M184.237 1001.3 L202.593 1001.3 L202.593 1005.23 L188.519 1005.23 L188.519 1013.71 Q189.538 1013.36 190.556 1013.2 Q191.575 1013.01 192.593 1013.01 Q198.38 1013.01 201.76 1016.18 Q205.139 1019.35 205.139 1024.77 Q205.139 1030.35 201.667 1033.45 Q198.195 1036.53 191.875 1036.53 Q189.7 1036.53 187.431 1036.16 Q185.186 1035.79 182.778 1035.05 L182.778 1030.35 Q184.862 1031.48 187.084 1032.04 Q189.306 1032.59 191.783 1032.59 Q195.787 1032.59 198.125 1030.49 Q200.463 1028.38 200.463 1024.77 Q200.463 1021.16 198.125 1019.05 Q195.787 1016.95 191.783 1016.95 Q189.908 1016.95 188.033 1017.36 Q186.181 1017.78 184.237 1018.66 L184.237 1001.3 Z" fill="#000000" fill-rule="nonzero" fill-opacity="1" /><path clip-path="url(#clip810)" d="M224.352 1004.38 Q220.741 1004.38 218.912 1007.94 Q217.107 1011.48 217.107 1018.61 Q217.107 1025.72 218.912 1029.28 Q220.741 1032.83 224.352 1032.83 Q227.986 1032.83 229.792 1029.28 Q231.621 1025.72 231.621 1018.61 Q231.621 1011.48 229.792 1007.94 Q227.986 1004.38 224.352 1004.38 M224.352 1000.67 Q230.162 1000.67 233.218 1005.28 Q236.297 1009.86 236.297 1018.61 Q236.297 1027.34 233.218 1031.95 Q230.162 1036.53 224.352 1036.53 Q218.542 1036.53 215.463 1031.95 Q212.408 1027.34 212.408 1018.61 Q212.408 1009.86 215.463 1005.28 Q218.542 1000.67 224.352 1000.67 Z" fill="#000000" fill-rule="nonzero" fill-opacity="1" /><path clip-path="url(#clip810)" d="M224.352 858.725 Q220.741 858.725 218.912 862.29 Q217.107 865.831 217.107 872.961 Q217.107 880.067 218.912 883.632 Q220.741 887.174 224.352 887.174 Q227.986 887.174 229.792 883.632 Q231.621 880.067 231.621 872.961 Q231.621 865.831 229.792 862.29 Q227.986 858.725 224.352 858.725 M224.352 855.021 Q230.162 855.021 233.218 859.628 Q236.297 864.211 236.297 872.961 Q236.297 881.688 233.218 886.294 Q230.162 890.877 224.352 890.877 Q218.542 890.877 215.463 886.294 Q212.408 881.688 212.408 872.961 Q212.408 864.211 215.463 859.628 Q218.542 855.021 224.352 855.021 Z" fill="#000000" fill-rule="nonzero" fill-opacity="1" /><path clip-path="url(#clip810)" d="M14.479 1177.32 L27.6241 1177.32 Q27.6241 1170.99 32.4939 1166.76 Q37.4592 1162.39 46.212 1162.39 Q54.9649 1162.39 59.9301 1166.76 Q64.7999 1170.99 64.7999 1177.32 L77.5631 1177.32 L77.5631 1183.15 L64.7999 1183.15 Q64.7999 1189.48 59.9301 1193.75 Q54.9649 1198.07 46.212 1198.07 Q37.4592 1198.07 32.4939 1193.75 Q27.6241 1189.48 27.6241 1183.15 L14.479 1183.15 L14.479 1177.32 M59.58 1177.32 Q59.58 1173.73 56.3017 1171.28 Q52.6414 1168.6 46.212 1168.57 Q39.8463 1168.54 36.1224 1171.28 Q32.844 1173.73 32.844 1177.32 L59.58 1177.32 M59.58 1183.15 L32.844 1183.15 Q32.844 1186.74 36.1224 1189.16 Q39.8463 1191.93 46.212 1191.9 Q52.6414 1191.87 56.3017 1189.16 Q59.58 1186.74 59.58 1183.15 Z" fill="#000000" fill-rule="nonzero" fill-opacity="1" /><path clip-path="url(#clip810)" d="M14.479 1132.32 L14.479 1118.82 L19.0304 1118.82 L19.0304 1126.46 L68.0464 1126.46 L68.0464 1118.82 L72.5979 1118.82 L72.5979 1132.32 L14.479 1132.32 Z" fill="#000000" fill-rule="nonzero" fill-opacity="1" /><path clip-path="url(#clip810)" d="M19.7307 1096.19 Q19.7307 1098.74 21.5131 1100.49 Q23.2636 1102.24 25.8099 1102.24 Q28.3244 1102.24 30.0749 1100.49 Q31.7937 1098.74 31.7937 1096.19 Q31.7937 1093.65 30.0749 1091.89 Q28.3244 1090.14 25.8099 1090.14 Q23.2955 1090.14 21.5131 1091.93 Q19.7307 1093.68 19.7307 1096.19 M15.6248 1096.19 Q15.6248 1094.15 16.4205 1092.28 Q17.1844 1090.4 18.6485 1089.03 Q20.0808 1087.57 21.895 1086.83 Q23.7092 1086.1 25.8099 1086.1 Q30.0113 1086.1 32.9395 1089.06 Q35.8359 1091.99 35.8359 1096.26 Q35.8359 1100.55 32.9713 1103.42 Q30.1068 1106.28 25.8099 1106.28 Q21.5449 1106.28 18.5848 1103.35 Q15.6248 1100.42 15.6248 1096.19 Z" fill="#000000" fill-rule="nonzero" fill-opacity="1" /><path clip-path="url(#clip810)" d="M14.479 1060.07 L72.5979 1060.07 L72.5979 1073.56 L68.0464 1073.56 L68.0464 1065.95 L19.0304 1065.95 L19.0304 1073.56 L14.479 1073.56 L14.479 1060.07 Z" fill="#000000" fill-rule="nonzero" fill-opacity="1" /><polyline clip-path="url(#clip813)" style="stroke:#009af9; stroke-linecap:round; stroke-linejoin:round; stroke-width:4; stroke-opacity:1; fill:none" points="331.177,875.154 363.884,875.522 396.618,875.796 429.405,876.151 462.043,876.53 494.691,876.902 527.41,877.377 560.194,877.907 592.883,878.47 625.543,879.148 658.269,880.812 690.995,881.761 723.712,882.895 756.439,884.141 789.147,885.502 821.831,887.037 854.583,888.788 887.257,890.812 919.977,893.055 952.714,895.616 985.41,898.482 1018.12,901.809 1050.85,905.698 1083.64,910.126 1116.28,915.282 1148.92,921.341 1181.64,928.682 1214.43,937.334 1247.12,948.199 1279.78,961.745 1312.5,979.165 1345.23,1002 1377.94,1032.47 1410.67,1071.36 1443.38,1117.83 1476.06,1165.69 1508.82,1208.51 1541.49,1242.3 1574.21,1269.97 1606.95,1290.37 1639.64,1307.26 1672.35,1320.08 1705.08,1330.86 1737.87,1339.31 1770.51,1346.88 1803.16,1352.71 1835.87,1358.24 1868.66,1362.32 1901.35,1366.4 1934.01,1369.89 1966.73,1373.39 1999.46,1375.43 2032.18,1377.76 2064.9,1379.21 2097.61,1381.54 2130.3,1383.58 2163.05,1384.17 2195.72,1385.04 2228.44,1386.21 2261.18,1385.91 2293.87,1386.5 "/>
<polyline clip-path="url(#clip813)" style="stroke:#e26f46; stroke-linecap:round; stroke-linejoin:round; stroke-width:4; stroke-opacity:1; fill:none" points="331.177,872.918 363.884,872.914 396.618,872.863 429.405,872.914 462.043,872.877 494.691,872.9 527.41,872.873 560.194,872.856 592.883,872.828 625.543,872.888 658.269,872.923 690.995,872.91 723.712,872.88 756.439,872.876 789.147,872.869 821.831,872.851 854.583,872.881 887.257,872.832 919.977,872.802 952.714,872.819 985.41,872.821 1018.12,872.804 1050.85,872.758 1083.64,872.775 1116.28,872.746 1148.92,872.75 1181.64,872.747 1214.43,872.785 1247.12,872.875 1279.78,872.946 1312.5,873.165 1345.23,873.499 1377.94,874.087 1410.67,874.905 1443.38,875.842 1476.06,876.352 1508.82,876.358 1541.49,876.026 1574.21,875.58 1606.95,875.181 1639.64,874.824 1672.35,874.56 1705.08,874.299 1737.87,874.133 1770.51,873.948 1803.16,873.849 1835.87,873.744 1868.66,873.659 1901.35,873.617 1934.01,873.528 1966.73,873.467 1999.46,873.444 2032.18,873.421 2064.9,873.407 2097.61,873.389 2130.3,873.392 2163.05,873.415 2195.72,873.44 2228.44,873.453 2261.18,873.506 2293.87,873.539 "/>
<polyline clip-path="url(#clip813)" style="stroke:#3da44d; stroke-linecap:round; stroke-linejoin:round; stroke-width:4; stroke-opacity:1; fill:none" points="331.177,871.737 363.884,871.662 396.618,871.516 429.405,871.435 462.043,871.311 494.691,871.164 527.41,871.026 560.194,870.828 592.883,870.665 625.543,870.404 658.269,870.029 690.995,869.696 723.712,869.314 756.439,868.886 789.147,868.423 821.831,867.945 854.583,867.371 887.257,866.829 919.977,866.203 952.714,865.582 985.41,864.895 1018.12,864.318 1050.85,863.738 1083.64,863.36 1116.28,863.197 1148.92,863.456 1181.64,864.336 1214.43,866.246 1247.12,869.588 1279.78,875.128 1312.5,884.138 1345.23,898.121 1377.94,919.244 1410.67,948.665 1443.38,985.195 1476.06,1023.01 1508.82,1056.16 1541.49,1081.73 1574.21,1100.29 1606.95,1112.84 1639.64,1121.73 1672.35,1127.41 1705.08,1131.37 1737.87,1133.73 1770.51,1135.71 1803.16,1136.35 1835.87,1136.94 1868.66,1136.96 1901.35,1137.17 1934.01,1137.14 1966.73,1137.05 1999.46,1136.73 2032.18,1136.41 2064.9,1136.03 2097.61,1136.12 2130.3,1136.12 2163.05,1135.68 2195.72,1135.42 2228.44,1135.33 2261.18,1134.98 2293.87,1135.1 "/>
<polyline clip-path="url(#clip813)" style="stroke:#c271d2; stroke-linecap:round; stroke-linejoin:round; stroke-width:4; stroke-opacity:1; fill:none" points="331.177,874.727 363.884,874.933 396.618,875.261 429.405,875.566 462.043,875.964 494.691,876.407 527.41,876.867 560.194,877.418 592.883,877.983 625.543,878.706 658.269,880.759 690.995,881.776 723.712,882.828 756.439,884.028 789.147,885.362 821.831,886.944 854.583,888.706 887.257,890.637 919.977,892.91 952.714,895.429 985.41,898.345 1018.12,901.593 1050.85,905.465 1083.64,909.893 1116.28,914.991 1148.92,921.05 1181.64,928.361 1214.43,936.984 1247.12,947.733 1279.78,961.191 1312.5,978.495 1345.23,1001.07 1377.94,1031.19 1410.67,1069.41 1443.38,1115.47 1476.06,1162.98 1508.82,1205.89 1541.49,1240.55 1574.21,1268.52 1606.95,1288.91 1639.64,1306.1 1672.35,1318.91 1705.08,1329.69 1737.87,1338.14 1770.51,1346.01 1803.16,1351.83 1835.87,1357.37 1868.66,1361.44 1901.35,1365.81 1934.01,1369.02 1966.73,1372.51 1999.46,1374.55 2032.18,1376.88 2064.9,1378.34 2097.61,1380.67 2130.3,1382.13 2163.05,1383.58 2195.72,1383.58 2228.44,1384.75 2261.18,1384.17 2293.87,1385.91 "/>
<polyline clip-path="url(#clip813)" style="stroke:#ac8d18; stroke-linecap:round; stroke-linejoin:round; stroke-width:4; stroke-opacity:1; fill:none" points="331.177,874.862 363.884,875.47 396.618,875.749 429.405,876.113 462.043,876.506 494.691,876.902 527.41,877.357 560.194,877.849 592.883,878.42 625.543,879.113 658.269,880.628 690.995,881.595 723.712,882.667 756.439,883.827 789.147,885.158 821.831,886.647 854.583,888.374 887.257,890.323 919.977,892.502 952.714,895.027 985.41,897.853 1018.12,901.066 1050.85,904.853 1083.64,909.252 1116.28,914.291 1148.92,920.263 1181.64,927.517 1214.43,936.023 1247.12,946.801 1279.78,960.259 1312.5,977.679 1345.23,1000.63 1377.94,1031.57 1410.67,1071.25 1443.38,1118.99 1476.06,1167.73 1508.82,1210.55 1541.49,1245.21 1574.21,1272.6 1606.95,1292.4 1639.64,1309.01 1672.35,1321.54 1705.08,1332.02 1737.87,1340.47 1770.51,1348.04 1803.16,1353.58 1835.87,1359.11 1868.66,1363.19 1901.35,1366.98 1934.01,1370.18 1966.73,1373.68 1999.46,1376.01 2032.18,1378.63 2064.9,1380.09 2097.61,1382.42 2130.3,1385.04 2163.05,1386.21 2195.72,1387.95 2228.44,1389.99 2261.18,1391.74 2293.87,1394.94 "/>
<path clip-path="url(#clip810)" d="M2029.18 1177.07 L2283.41 1177.07 L2283.41 866.033 L2029.18 866.033  Z" fill="#000000" fill-rule="evenodd" fill-opacity="0"/>
<polyline clip-path="url(#clip810)" style="stroke:#000000; stroke-linecap:round; stroke-linejoin:round; stroke-width:4; stroke-opacity:1; fill:none" points="2029.18,1177.07 2283.41,1177.07 2283.41,866.033 2029.18,866.033 2029.18,1177.07 "/>
<polyline clip-path="url(#clip810)" style="stroke:#009af9; stroke-linecap:round; stroke-linejoin:round; stroke-width:4; stroke-opacity:1; fill:none" points="2052.3,917.873 2190.99,917.873 "/>
<path clip-path="url(#clip810)" d="M2229.2 899.134 L2229.2 908.694 Q2233.81 908.694 2236.89 912.236 Q2240.06 915.847 2240.06 922.213 Q2240.06 928.578 2236.89 932.19 Q2233.81 935.731 2229.2 935.731 L2229.2 945.014 L2224.97 945.014 L2224.97 935.731 Q2220.36 935.731 2217.26 932.19 Q2214.11 928.578 2214.11 922.213 Q2214.11 915.847 2217.26 912.236 Q2220.36 908.694 2224.97 908.694 L2224.97 899.134 L2229.2 899.134 M2229.2 931.935 Q2231.82 931.935 2233.6 929.551 Q2235.55 926.889 2235.57 922.213 Q2235.59 917.583 2233.6 914.875 Q2231.82 912.491 2229.2 912.491 L2229.2 931.935 M2224.97 931.935 L2224.97 912.491 Q2222.35 912.491 2220.59 914.875 Q2218.58 917.583 2218.6 922.213 Q2218.62 926.889 2220.59 929.551 Q2222.35 931.935 2224.97 931.935 Z" fill="#000000" fill-rule="nonzero" fill-opacity="1" /><path clip-path="url(#clip810)" d="M2246.08 915.824 L2257.88 915.824 L2257.88 918.023 L2248.83 918.023 L2248.83 922.745 Q2249.48 922.537 2250.15 922.444 Q2250.8 922.352 2251.45 922.352 Q2255.18 922.352 2257.35 924.134 Q2259.53 925.893 2259.53 928.926 Q2259.53 932.051 2257.28 933.787 Q2255.06 935.5 2250.99 935.5 Q2249.6 935.5 2248.14 935.291 Q2246.68 935.083 2245.15 934.666 L2245.15 932.051 Q2246.47 932.676 2247.91 933 Q2249.34 933.301 2250.94 933.301 Q2253.51 933.301 2255.01 932.12 Q2256.52 930.94 2256.52 928.926 Q2256.52 926.912 2255.01 925.731 Q2253.51 924.551 2250.94 924.551 Q2249.74 924.551 2248.53 924.782 Q2247.33 925.014 2246.08 925.5 L2246.08 915.824 Z" fill="#000000" fill-rule="nonzero" fill-opacity="1" /><polyline clip-path="url(#clip810)" style="stroke:#e26f46; stroke-linecap:round; stroke-linejoin:round; stroke-width:4; stroke-opacity:1; fill:none" points="2052.3,969.713 2190.99,969.713 "/>
<path clip-path="url(#clip810)" d="M2229.2 950.974 L2229.2 960.534 Q2233.81 960.534 2236.89 964.076 Q2240.06 967.687 2240.06 974.053 Q2240.06 980.418 2236.89 984.03 Q2233.81 987.571 2229.2 987.571 L2229.2 996.854 L2224.97 996.854 L2224.97 987.571 Q2220.36 987.571 2217.26 984.03 Q2214.11 980.418 2214.11 974.053 Q2214.11 967.687 2217.26 964.076 Q2220.36 960.534 2224.97 960.534 L2224.97 950.974 L2229.2 950.974 M2229.2 983.775 Q2231.82 983.775 2233.6 981.391 Q2235.55 978.729 2235.57 974.053 Q2235.59 969.423 2233.6 966.715 Q2231.82 964.331 2229.2 964.331 L2229.2 983.775 M2224.97 983.775 L2224.97 964.331 Q2222.35 964.331 2220.59 966.715 Q2218.58 969.423 2218.6 974.053 Q2218.62 978.729 2220.59 981.391 Q2222.35 983.775 2224.97 983.775 Z" fill="#000000" fill-rule="nonzero" fill-opacity="1" /><path clip-path="url(#clip810)" d="M2246.4 984.446 L2251.12 984.446 L2251.12 970.303 L2245.96 971.252 L2245.96 968.567 L2251.29 967.664 L2254.46 967.664 L2254.46 984.446 L2259.2 984.446 L2259.2 986.993 L2246.4 986.993 L2246.4 984.446 Z" fill="#000000" fill-rule="nonzero" fill-opacity="1" /><polyline clip-path="url(#clip810)" style="stroke:#3da44d; stroke-linecap:round; stroke-linejoin:round; stroke-width:4; stroke-opacity:1; fill:none" points="2052.3,1021.55 2190.99,1021.55 "/>
<path clip-path="url(#clip810)" d="M2229.2 1002.81 L2229.2 1012.37 Q2233.81 1012.37 2236.89 1015.92 Q2240.06 1019.53 2240.06 1025.89 Q2240.06 1032.26 2236.89 1035.87 Q2233.81 1039.41 2229.2 1039.41 L2229.2 1048.69 L2224.97 1048.69 L2224.97 1039.41 Q2220.36 1039.41 2217.26 1035.87 Q2214.11 1032.26 2214.11 1025.89 Q2214.11 1019.53 2217.26 1015.92 Q2220.36 1012.37 2224.97 1012.37 L2224.97 1002.81 L2229.2 1002.81 M2229.2 1035.61 Q2231.82 1035.61 2233.6 1033.23 Q2235.55 1030.57 2235.57 1025.89 Q2235.59 1021.26 2233.6 1018.55 Q2231.82 1016.17 2229.2 1016.17 L2229.2 1035.61 M2224.97 1035.61 L2224.97 1016.17 Q2222.35 1016.17 2220.59 1018.55 Q2218.58 1021.26 2218.6 1025.89 Q2218.62 1030.57 2220.59 1033.23 Q2222.35 1035.61 2224.97 1035.61 Z" fill="#000000" fill-rule="nonzero" fill-opacity="1" /><path clip-path="url(#clip810)" d="M2248.99 1036.19 L2258.81 1036.19 L2258.81 1038.83 L2244.97 1038.83 L2244.97 1036.29 Q2245.75 1035.57 2247.21 1034.27 Q2255.18 1027.21 2255.18 1025.04 Q2255.18 1023.51 2253.97 1022.58 Q2252.77 1021.63 2250.8 1021.63 Q2249.6 1021.63 2248.18 1022.05 Q2246.77 1022.44 2245.11 1023.25 L2245.11 1020.41 Q2246.89 1019.76 2248.42 1019.43 Q2249.97 1019.11 2251.29 1019.11 Q2254.64 1019.11 2256.66 1020.64 Q2258.67 1022.17 2258.67 1024.67 Q2258.67 1027.88 2251.01 1034.46 Q2249.71 1035.57 2248.99 1036.19 Z" fill="#000000" fill-rule="nonzero" fill-opacity="1" /><polyline clip-path="url(#clip810)" style="stroke:#c271d2; stroke-linecap:round; stroke-linejoin:round; stroke-width:4; stroke-opacity:1; fill:none" points="2052.3,1073.39 2190.99,1073.39 "/>
<path clip-path="url(#clip810)" d="M2229.2 1054.65 L2229.2 1064.21 Q2233.81 1064.21 2236.89 1067.76 Q2240.06 1071.37 2240.06 1077.73 Q2240.06 1084.1 2236.89 1087.71 Q2233.81 1091.25 2229.2 1091.25 L2229.2 1100.53 L2224.97 1100.53 L2224.97 1091.25 Q2220.36 1091.25 2217.26 1087.71 Q2214.11 1084.1 2214.11 1077.73 Q2214.11 1071.37 2217.26 1067.76 Q2220.36 1064.21 2224.97 1064.21 L2224.97 1054.65 L2229.2 1054.65 M2229.2 1087.45 Q2231.82 1087.45 2233.6 1085.07 Q2235.55 1082.41 2235.57 1077.73 Q2235.59 1073.1 2233.6 1070.39 Q2231.82 1068.01 2229.2 1068.01 L2229.2 1087.45 M2224.97 1087.45 L2224.97 1068.01 Q2222.35 1068.01 2220.59 1070.39 Q2218.58 1073.1 2218.6 1077.73 Q2218.62 1082.41 2220.59 1085.07 Q2222.35 1087.45 2224.97 1087.45 Z" fill="#000000" fill-rule="nonzero" fill-opacity="1" /><path clip-path="url(#clip810)" d="M2254.92 1080.21 Q2257.05 1080.63 2258.21 1081.9 Q2259.39 1083.15 2259.39 1085.05 Q2259.39 1087.92 2257.19 1089.47 Q2254.99 1091.02 2250.89 1091.02 Q2249.57 1091.02 2248.12 1090.77 Q2246.68 1090.53 2245.06 1090.07 L2245.06 1087.27 Q2246.26 1087.89 2247.63 1088.2 Q2249.02 1088.5 2250.57 1088.5 Q2253.09 1088.5 2254.48 1087.59 Q2255.87 1086.67 2255.87 1085.05 Q2255.87 1083.33 2254.57 1082.45 Q2253.3 1081.58 2250.8 1081.58 L2248.81 1081.58 L2248.81 1079.08 L2250.99 1079.08 Q2253.16 1079.08 2254.27 1078.36 Q2255.41 1077.62 2255.41 1076.23 Q2255.41 1074.89 2254.25 1074.19 Q2253.09 1073.47 2250.89 1073.47 Q2249.97 1073.47 2248.79 1073.68 Q2247.61 1073.89 2245.73 1074.42 L2245.73 1071.76 Q2247.42 1071.37 2248.9 1071.16 Q2250.38 1070.95 2251.66 1070.95 Q2254.99 1070.95 2256.93 1072.32 Q2258.9 1073.68 2258.9 1075.97 Q2258.9 1077.57 2257.86 1078.68 Q2256.82 1079.79 2254.92 1080.21 Z" fill="#000000" fill-rule="nonzero" fill-opacity="1" /><polyline clip-path="url(#clip810)" style="stroke:#ac8d18; stroke-linecap:round; stroke-linejoin:round; stroke-width:4; stroke-opacity:1; fill:none" points="2052.3,1125.23 2190.99,1125.23 "/>
<path clip-path="url(#clip810)" d="M2229.2 1106.49 L2229.2 1116.05 Q2233.81 1116.05 2236.89 1119.6 Q2240.06 1123.21 2240.06 1129.57 Q2240.06 1135.94 2236.89 1139.55 Q2233.81 1143.09 2229.2 1143.09 L2229.2 1152.37 L2224.97 1152.37 L2224.97 1143.09 Q2220.36 1143.09 2217.26 1139.55 Q2214.11 1135.94 2214.11 1129.57 Q2214.11 1123.21 2217.26 1119.6 Q2220.36 1116.05 2224.97 1116.05 L2224.97 1106.49 L2229.2 1106.49 M2229.2 1139.29 Q2231.82 1139.29 2233.6 1136.91 Q2235.55 1134.25 2235.57 1129.57 Q2235.59 1124.94 2233.6 1122.23 Q2231.82 1119.85 2229.2 1119.85 L2229.2 1139.29 M2224.97 1139.29 L2224.97 1119.85 Q2222.35 1119.85 2220.59 1122.23 Q2218.58 1124.94 2218.6 1129.57 Q2218.62 1134.25 2220.59 1136.91 Q2222.35 1139.29 2224.97 1139.29 Z" fill="#000000" fill-rule="nonzero" fill-opacity="1" /><path clip-path="url(#clip810)" d="M2253.83 1125.98 L2246.68 1135.68 L2253.83 1135.68 L2253.83 1125.98 M2253.32 1123.18 L2257.17 1123.18 L2257.17 1135.68 L2260.29 1135.68 L2260.29 1138.21 L2257.17 1138.21 L2257.17 1142.51 L2253.83 1142.51 L2253.83 1138.21 L2244.25 1138.21 L2244.25 1135.41 L2253.32 1123.18 Z" fill="#000000" fill-rule="nonzero" fill-opacity="1" /></svg>
